<svg xmlns="http://www.w3.org/2000/svg" width="138" height="32" viewBox="0 0 138 32" fill="none">
<path d="M69.994 14.6127C68.6491 14.6127 67.3405 15.7638 67.3163 17.1451C67.292 18.5991 68.5885 19.4957 69.9092 19.4957C71.2542 19.4957 72.5628 18.3446 72.587 16.9512C72.6112 15.4972 71.3148 14.6127 69.994 14.6127Z" fill="#1D1D1D"/>
<path d="M137.132 28.6437C135.448 25.3722 135.06 21.0345 134.721 16.9633C134.552 15.1458 134.697 13.1223 134.091 10.7232C133.812 9.68118 133.461 8.79667 132.783 8.0212C132.14 7.24574 131.014 6.7126 130.032 6.74895C129.16 6.74895 128.469 7.02764 127.9 7.34267C127.33 7.6577 126.845 8.03332 126.397 8.42105C125.779 8.9663 125.294 9.56001 124.895 10.1295C124.531 10.6384 124.228 11.1473 123.877 11.6925C123.828 11.2685 123.78 10.8807 123.731 10.5778C123.465 8.91783 123.077 6.74895 122.386 4.81029C122.035 3.84096 121.611 2.90798 120.945 2.0477C120.605 1.62361 120.193 1.21165 119.648 0.896617C119.103 0.569467 118.412 0.351368 117.709 0.351368C117.54 0.351368 117.358 0.363485 117.188 0.387718C115.856 0.605817 115.104 1.3207 114.462 1.99923C113.517 3.05338 112.778 4.32563 112.099 5.64634C111.433 6.96705 110.864 8.33623 110.439 9.45096C107.689 16.6482 107.083 21.1799 105.629 27.2624C105.338 28.4983 106.09 29.7463 107.301 30.0492C108.525 30.3522 109.761 29.5888 110.052 28.3408C111.566 21.9796 112.087 17.8963 114.68 11.1109C115.189 9.77811 115.953 8.0212 116.728 6.67625C117.043 6.11889 117.37 5.64634 117.637 5.31919C117.673 5.37977 117.709 5.46459 117.746 5.53729C118.4 6.82165 118.933 9.4025 119.224 11.3048C119.26 11.5471 119.357 12.3711 119.442 13.195C119.539 14.0432 119.636 14.9035 119.769 15.582C119.915 16.3211 120.06 16.9754 120.302 17.6297C120.424 17.9568 120.569 18.284 120.86 18.6838C121.005 18.8898 121.199 19.1079 121.526 19.3381C121.841 19.5562 122.302 19.7622 122.835 19.7865H122.895H122.956C123.719 19.7622 124.083 19.4957 124.325 19.3503C124.749 19.0352 124.882 18.8414 125.04 18.6475C125.525 18.0174 125.9 17.3025 126.349 16.5028C126.785 15.7274 127.233 14.9035 127.548 14.4309C127.996 13.7281 128.336 13.1829 128.602 12.7952C128.881 12.3953 129.087 12.1651 129.378 11.9106C129.463 11.8379 129.547 11.7652 129.632 11.6925C129.644 11.7531 129.669 11.8137 129.681 11.8864C130.081 13.3889 130.008 15.1094 130.177 17.351C130.529 21.398 130.844 26.3173 133.073 30.7399C133.473 31.5396 134.273 32 135.097 32C135.448 32 135.8 31.9152 136.139 31.7456C137.266 31.1761 137.702 29.7827 137.132 28.6437Z" fill="#1D1D1D"/>
<path d="M103.739 3.84097C102.479 1.92655 100.407 0.302916 97.7412 0.0363499C97.4989 0.0121166 97.2565 0 97.0263 0C95.742 0 94.5666 0.339266 93.5125 0.799698C89.8412 2.39909 87.3088 5.31921 85.8184 8.71186C84.316 12.1166 83.7586 15.994 83.7465 19.9319C83.7465 22.44 83.9767 24.9603 84.3765 27.4321C84.5583 28.5589 85.5276 29.3707 86.6181 29.3707C86.7393 29.3707 86.8605 29.3586 86.9937 29.3344C88.2296 29.1284 89.0778 27.941 88.8718 26.6808C88.5083 24.4393 88.3023 22.1492 88.3023 19.944C88.3023 19.5441 88.3145 19.1443 88.3266 18.7566C89.4292 18.9747 90.6772 19.1806 91.0043 19.2291C92.107 19.3866 93.1005 19.4593 94.0577 19.4593C94.6878 19.4593 95.2815 19.423 95.8873 19.3745C97.8139 19.2049 99.4496 18.599 100.746 17.9205C102.043 17.242 102.976 16.4907 103.569 15.9213C105.144 14.3703 105.678 12.2742 105.678 10.2507C105.653 8.04545 105.023 5.77964 103.739 3.84097ZM100.407 12.5771C100.152 12.8315 99.4981 13.3647 98.6378 13.813C97.7775 14.2734 96.6992 14.6611 95.4996 14.7581C95.0028 14.8065 94.5303 14.8187 94.0577 14.8187C93.3307 14.8187 92.5674 14.7702 91.6465 14.6369C91.5011 14.6127 90.7378 14.4915 89.9744 14.3582C89.5867 14.2855 89.199 14.2128 88.8718 14.1401C89.1384 12.8679 89.514 11.6804 89.9866 10.6142C91.1498 8.03333 92.7976 6.16737 95.33 5.04052C95.9601 4.76184 96.5659 4.61644 97.0384 4.62856C97.1232 4.62856 97.2081 4.62856 97.2808 4.64067C98.3834 4.76184 99.2437 5.36767 99.9828 6.44605C100.698 7.51232 101.122 9.00266 101.122 10.2628C101.122 11.426 100.746 12.2742 100.407 12.5771Z" fill="#1D1D1D"/>
<path d="M21.9879 12.6984C21.7455 10.4326 21.382 8.23946 20.6671 6.24021C19.9523 4.2652 18.8375 2.39923 16.9716 1.18757C16.1355 0.642321 15.142 0.339405 14.1847 0.351522C12.6459 0.363638 11.3495 1.01794 10.2711 1.8661C8.65956 3.15047 7.37519 4.94373 6.26046 6.93086C5.16996 8.89375 4.27333 11.0626 3.6675 13.1467C2.18927 17.2542 1.02607 21.701 0.0567417 26.0388C-0.221941 27.2868 0.553524 28.5227 1.7773 28.8014C1.94694 28.8377 2.11657 28.862 2.2862 28.862C3.32823 28.862 4.26122 28.135 4.50355 27.0566C5.27901 23.5912 6.17565 20.1016 7.24191 16.8302C8.00526 16.9998 8.75649 17.0725 9.48349 17.1452C11.0465 17.2785 12.5611 17.2906 13.5426 17.4481C14.9117 17.642 16.3173 17.957 17.8076 18.0661C17.9651 20.8771 18.0863 23.7245 18.5104 26.269C18.6921 27.3959 19.6615 28.2077 20.752 28.2077C20.8731 28.2077 21.0064 28.1956 21.1276 28.1834C22.3635 27.9653 23.2116 26.7779 23.0057 25.5178C22.4241 22.0888 22.4483 17.2179 21.9879 12.6984ZM14.209 12.8922C12.7307 12.6741 11.2041 12.6741 9.8591 12.5651C9.45926 12.5409 9.08364 12.4924 8.73226 12.4318C9.39867 10.7234 10.259 9.0028 11.1798 7.66997C11.822 6.72487 12.5005 5.97364 13.07 5.52533C13.6516 5.0649 14.0393 4.98008 14.1847 4.98008C14.2817 4.9922 14.3423 4.9922 14.5361 5.10124C15.2389 5.54956 15.869 6.40984 16.39 7.83961C16.9231 9.2936 17.2503 11.2444 17.4805 13.4133C16.5475 13.2921 15.4328 13.074 14.209 12.8922Z" fill="#1D1D1D"/>
<path d="M56.7747 22.9125C56.7626 22.5975 56.7626 22.2703 56.7626 21.9432C56.7626 20.4165 56.8717 18.6959 56.8717 16.9996C56.8717 15.7516 56.8111 14.5157 56.5688 13.2919C56.2295 11.6804 55.7206 10.3718 54.8119 9.34185C53.9152 8.29982 52.5218 7.71822 51.3101 7.75457C49.638 7.7788 48.3173 8.48157 47.1178 9.24492C45.9304 10.0325 44.852 10.9776 43.9432 11.8379C43.8463 11.9348 43.7494 12.0317 43.6645 12.1166C43.6524 11.7167 43.6524 11.3047 43.6524 10.8928C43.6524 10.4808 43.6524 10.0688 43.6524 9.64476C43.6524 8.4331 43.6403 7.20932 43.4464 5.97342C43.2526 4.74964 42.8648 3.45316 41.944 2.32631C41.6047 1.91435 41.1806 1.52662 40.6475 1.23582C40.1265 0.945017 39.4964 0.7875 38.9027 0.7875C37.9697 0.799617 37.2185 1.11465 36.6005 1.46603C35.3889 2.1688 34.4438 3.16236 33.6198 4.31344C31.1965 7.73034 29.6335 12.6739 28.4582 17.0965C28.1916 18.1264 27.8281 19.5441 27.5131 21.0344C27.2101 22.5248 26.9436 24.0515 26.9315 25.4691C26.9193 26.7413 27.9371 27.7834 29.1973 27.7955C30.4574 27.8076 31.4873 26.7777 31.4873 25.4933C31.4873 24.6694 31.6812 23.3245 31.972 21.9916C32.2507 20.6467 32.602 19.2896 32.8686 18.2839C33.5956 15.4971 34.5286 12.5043 35.6191 10.0931C36.1643 8.89353 36.7459 7.83939 37.3154 7.03969C37.8001 6.34904 38.2847 5.87649 38.6604 5.62204C38.7694 5.86437 38.8785 6.21576 38.9512 6.70042C39.0723 7.46377 39.0966 8.49368 39.0966 9.64476C39.0966 10.0446 39.0966 10.4566 39.0966 10.8928C39.0966 12.7345 39.1208 14.7943 39.7024 16.8784C39.8114 17.2661 40.0174 17.7629 40.5021 18.2112C40.9746 18.6717 41.7016 18.914 42.2469 18.8898C42.9012 18.8776 43.3132 18.6838 43.6282 18.5263C44.1734 18.2233 44.5127 17.9204 44.852 17.6054C45.3488 17.1328 45.8092 16.6118 46.1969 16.1514C46.5847 15.7031 46.9482 15.3032 47.0451 15.2063C47.8448 14.443 48.7535 13.6554 49.5775 13.1222C50.3893 12.5649 51.1163 12.3468 51.298 12.3831C51.3586 12.3831 51.3586 12.3831 51.3586 12.3831C51.3586 12.3831 51.3586 12.3831 51.3828 12.4074C51.4677 12.4679 51.8554 12.9647 52.0977 14.237C52.2431 14.9519 52.3037 15.9212 52.3037 17.0117C52.3037 18.5141 52.1947 20.2226 52.1947 21.9553C52.1947 22.3309 52.1947 22.7186 52.2189 23.1064C52.2795 24.8875 52.3522 26.2082 52.5824 28.1348C52.7157 29.3101 53.6971 30.1704 54.8361 30.1704C54.933 30.1704 55.0178 30.1704 55.1148 30.1582C56.3628 30.0128 57.2473 28.8618 57.1019 27.5895C56.8959 25.7841 56.8474 24.6815 56.7747 22.9125Z" fill="#1D1D1D"/>
<script xmlns=""/><link xmlns=""/></svg>