<svg xmlns:xlink="http://www.w3.org/1999/xlink" xmlns="http://www.w3.org/2000/svg" strokeWidth="0.501" strokeLinejoin="bevel" fillRule="evenodd" version="1.1" overflow="visible" width="205.5pt" height="36pt" viewBox="0 0 205.5 36">
  <g id="Document" fill="none" stroke="black" fontFamily="Times New Roman" fontSize="16" transform="scale(1 -1)">
    <g id="Spread" transform="translate(0 -36)">
      <g id="Layer 5">
        <g id="Group" fillRule="evenodd" strokeLinejoin="miter" stroke="none" strokeWidth="1.029" strokeMiterlimit="79.8403193612775">
          <path d="M 205.595,2.416 L 179.306,30.528 L 179.306,3.456 L 177.313,3.456 L 177.313,35.376 L 203.612,7.467 L 203.612,34.957 L 205.605,34.957 L 205.595,2.416 Z M 149.925,4.304 C 148.001,5.122 146.252,6.307 144.772,7.793 C 143.3,9.274 142.109,11.017 141.263,12.932 C 140.383,14.901 139.937,17.038 139.952,19.198 C 139.941,21.348 140.381,23.476 141.24,25.444 C 142.926,29.34 146.035,32.432 149.925,34.092 C 151.907,34.948 154.041,35.386 156.197,35.376 C 158.347,35.383 160.474,34.95 162.45,34.099 C 164.383,33.281 166.14,32.093 167.623,30.601 C 169.099,29.115 170.291,27.366 171.135,25.444 C 171.997,23.472 172.445,21.34 172.445,19.189 C 172.445,17.034 171.997,14.903 171.135,12.932 C 170.287,11.017 169.095,9.275 167.623,7.793 C 166.138,6.305 164.381,5.12 162.45,4.304 C 160.466,3.464 158.337,3.031 156.188,3.031 C 154.035,3.031 151.907,3.464 149.925,4.304 Z M 45.02,4.314 C 43.097,5.134 41.348,6.319 39.867,7.802 C 38.397,9.285 37.205,11.026 36.361,12.943 C 35.483,14.912 35.033,17.049 35.051,19.208 C 35.039,21.358 35.477,23.485 36.338,25.454 C 38.024,29.347 41.131,32.442 45.02,34.101 C 47.002,34.942 49.132,35.376 51.284,35.376 C 53.435,35.376 55.564,34.942 57.546,34.101 C 59.481,33.281 61.238,32.093 62.72,30.601 C 64.191,29.116 65.379,27.372 66.22,25.454 C 67.086,23.482 67.533,21.352 67.533,19.196 C 67.533,17.044 67.086,14.912 66.22,12.943 C 65.628,11.609 64.868,10.354 63.961,9.212 L 63.459,9.88 L 62.735,10.825 C 63.394,11.722 63.951,12.687 64.4,13.707 C 65.152,15.442 65.542,17.317 65.542,19.21 C 65.542,21.105 65.152,22.979 64.4,24.714 C 62.92,28.134 60.202,30.858 56.798,32.338 C 55.057,33.097 53.181,33.488 51.284,33.488 C 49.385,33.488 47.508,33.097 45.766,32.338 C 44.081,31.596 42.547,30.549 41.239,29.248 C 39.934,27.949 38.889,26.41 38.162,24.714 C 37.422,22.97 37.041,21.095 37.041,19.2 C 37.041,17.305 37.422,15.429 38.162,13.686 C 38.889,11.991 39.934,10.45 41.239,9.151 C 42.549,7.851 44.081,6.804 45.766,6.061 C 47.508,5.303 49.385,4.911 51.284,4.911 C 53.181,4.911 55.057,5.303 56.798,6.061 C 57.34,6.307 57.868,6.588 58.378,6.895 L 58.821,6.304 C 59.059,5.979 59.3,5.662 59.548,5.351 C 58.906,4.961 58.236,4.614 57.546,4.314 C 55.564,3.473 53.435,3.039 51.284,3.039 C 49.132,3.039 47.002,3.473 45.02,4.314 Z M 78.086,3.965 C 76.593,4.554 75.267,5.501 74.219,6.724 C 73.728,7.336 73.317,8.01 72.995,8.728 C 72.705,9.389 72.499,10.083 72.372,10.796 C 72.245,11.518 72.17,12.249 72.144,12.983 C 72.115,13.732 72.1,14.511 72.1,15.322 L 72.1,34.957 L 74.097,34.957 L 74.097,15.905 C 74.097,15.175 74.097,14.465 74.118,13.755 C 74.129,13.054 74.193,12.355 74.304,11.666 C 74.413,10.999 74.574,10.341 74.787,9.701 C 74.996,9.074 75.313,8.488 75.723,7.97 C 76.122,7.457 76.599,7.012 77.137,6.652 C 77.693,6.272 78.284,5.946 78.901,5.681 C 79.522,5.416 80.171,5.22 80.833,5.098 C 82.095,4.846 83.395,4.846 84.657,5.098 C 85.32,5.22 85.967,5.416 86.589,5.681 C 87.207,5.946 87.798,6.27 88.354,6.652 C 88.892,7.014 89.371,7.457 89.769,7.97 C 90.179,8.488 90.496,9.074 90.705,9.701 C 90.916,10.341 91.078,10.999 91.187,11.666 C 91.297,12.357 91.36,13.056 91.374,13.755 C 91.387,14.465 91.393,15.181 91.393,15.905 L 91.383,34.957 L 93.378,34.957 L 93.378,15.322 C 93.378,14.511 93.365,13.732 93.336,12.983 C 93.311,12.249 93.234,11.518 93.11,10.796 C 92.85,9.3 92.214,7.898 91.261,6.724 C 90.213,5.501 88.887,4.554 87.394,3.965 C 84.411,2.742 81.07,2.742 78.086,3.965 Z M 96.655,3.454 L 109.785,36 L 122.875,3.454 L 120.836,3.454 L 116.48,14.277 L 106.845,14.277 L 107.602,16.155 L 115.725,16.155 L 109.785,30.904 L 98.693,3.454 L 96.655,3.454 Z M 128.111,3.454 L 128.111,33.076 L 120.012,33.076 L 120.012,34.957 L 138.21,34.957 L 138.21,33.076 L 130.108,33.076 L 130.108,3.454 L 128.111,3.454 Z M 0.107,3.456 L 30.185,35.374 L 30.185,3.456 L 28.191,3.456 L 28.191,30.53 L 14.75,16.157 L 24.413,16.157 L 24.413,14.279 L 12.99,14.279 L 2.869,3.456 L 0.107,3.456 Z M 161.704,6.059 C 165.113,7.542 167.834,10.276 169.307,13.707 C 170.058,15.444 170.448,17.317 170.448,19.21 C 170.448,21.105 170.058,22.979 169.307,24.714 C 167.827,28.134 165.108,30.858 161.704,32.338 C 159.968,33.106 158.094,33.502 156.197,33.495 C 154.297,33.508 152.413,33.117 150.671,32.346 C 148.987,31.604 147.453,30.555 146.143,29.255 C 144.836,27.957 143.789,26.417 143.06,24.722 C 142.32,22.979 141.938,21.103 141.938,19.208 C 141.938,17.311 142.32,15.435 143.06,13.692 C 143.787,11.996 144.832,10.458 146.137,9.159 C 147.448,7.856 148.985,6.806 150.671,6.059 C 152.413,5.301 154.291,4.911 156.188,4.911 C 158.085,4.911 159.963,5.301 161.704,6.059 Z" fill="#000000" markerStart="none" markerEnd="none"/>
          <path d="M 71.666,1.381 C 67.454,1.381 65.037,4.616 62.705,7.747 C 62.462,8.075 62.219,8.404 61.965,8.72 C 59.306,12.228 56.533,15.855 51.295,15.855 L 51.138,15.855 L 51.138,14.484 L 51.295,14.484 C 55.074,14.484 57.354,11.417 59.563,8.455 C 59.806,8.116 60.065,7.78 60.317,7.444 C 63.106,3.784 65.985,0 71.673,0 L 71.831,0 L 71.831,1.369 L 71.666,1.381 Z" fill="#00add8" markerStart="none" markerEnd="none"/>
        </g>
      </g>
    </g>
  </g>
</svg>