<svg xmlns="http://www.w3.org/2000/svg" viewBox="0 0 500 204"><path fill="#00c087" d="M389.56 87.81c15.52-10.15 30.18-1.54 30.21 16.19q.02 14.78-.06 29.52a.49.49 0 0 1-.49.48h-10.2q-.48 0-.49-.49-.1-13.64-.02-27.22c.09-14.76-19.04-14.51-19.37-.06q-.3 13.1-.08 26.93.01.84-.83.84h-10.1q-.63 0-.63-.63V50.7a.49.49 0 0 1 .49-.49l10.52.06q.49 0 .49.49V87.5q0 .67.56.31ZM31.28 88c9.89-7.74 24.49-5.34 29.02 7.18q1.12 3.1 1.17 9.44.11 14.55-.01 29.12 0 .51-.51.51H50.8q-.52 0-.53-.52-.07-14.12-.02-28.19c.04-13.73-19.52-13.61-19.49 1.64q.02 13.27-.03 26.55 0 .52-.52.52H19.88q-.63 0-.63-.63V51q0-.75.75-.75h10.25q.5 0 .5.5v37q0 .67.53.25ZM269.69 88.98a.45.45 0 0 0 .81-.26V85.5q0-.75.75-.75h9.25q.61 0 .6.61-.35 22.22-.3 44.36c.02 8.62-5.89 16.01-12.97 19.89-13.42 7.34-28.44 2.34-35.59-11.36a.53.53 0 0 1 .46-.77l10.78-.16q.42-.01.73.28c10.09 9.68 25.78 3.96 26.3-10.08q.02-.72-.5-.23-10.25 9.55-21.89 5.36c-25.43-9.14-19.63-47.87 6.73-48.99 4.34-.18 11.97 1.29 14.84 5.32Zm-13.438 34.058a13.89 13.46 90.9 0 0 13.676-13.677 13.89 13.46 90.9 0 0-13.24-14.1 13.89 13.46 90.9 0 0-13.676 13.678 13.89 13.46 90.9 0 0 13.24 14.1ZM303.7 87.97a.34.34 0 0 0 .58.27q4.79-4.58 11.54-4.65.68-.01.68.67v9.53a.97.97 0 0 1-.95.97c-5.99.14-10.47 3.89-10.62 9.99q-.32 13.79-.14 28.68.01.82-.81.82h-10.5a.26.26 0 0 1-.26-.27l.03-48.76q.01-.47.47-.47h9.39q.85 0 .78.85l-.19 2.37ZM110.25 130.01a.36.36 0 0 0-.61-.26q-6.54 6.19-15.66 5.23c-18.58-1.95-28.39-23.13-18.85-38.8 7.1-11.67 23.44-17.49 34.34-6.84a.46.45 22.4 0 0 .78-.32v-3.63q0-.61.61-.61l10.11-.09a.53.53 0 0 1 .53.53v48.56a.52.52 0 0 1-.53.52l-10.21-.21q-.51-.02-.51-.52v-3.56Zm-13.635-6.55a14.09 13.6 89.9 0 0 13.575-14.114A14.09 13.6 89.9 0 0 96.565 95.28a14.09 13.6 89.9 0 0-13.575 14.114 14.09 13.6 89.9 0 0 13.625 14.066ZM143.82 88.53a.26.25-20.2 0 0 .42.19q9.06-7.37 19.11-4.08c9.39 3.07 12.83 10.24 12.87 19.58q.07 14.79.02 29.52a.52.51-89.4 0 1-.51.51H165.5q-.54 0-.54-.54.02-12.98.21-25.93c.23-15.77-20.44-16.4-20.43-.69q.02 13.28.01 26.37a.8.79 0 0 1-.8.79h-10.07q-.63 0-.63-.62V85.2q0-.49.49-.49l9.53.06q.49 0 .5.5l.05 3.26Z"/><path fill="#00c087" d="M343.595 135a25.65 24.78 90.1 0 1-24.735-25.693A25.65 24.78 90.1 0 1 343.685 83.7a25.65 24.78 90.1 0 1 24.735 25.693A25.65 24.78 90.1 0 1 343.595 135Zm.054-11.53a14.12 13.44 89.6 0 0 13.34-14.214 14.12 13.44 89.6 0 0-13.538-14.026 14.12 13.44 89.6 0 0-13.34 14.214 14.12 13.44 89.6 0 0 13.538 14.026ZM441.1 114.5c2.86 11.01 16.3 11.68 23.39 4.33a1.09 1.09 0 0 1 .78-.33l11.14.01a.34.34 0 0 1 .32.47c-5.3 12.58-17.93 19.2-30.93 14.69-18.81-6.54-21.49-32.74-6.82-44.69 10.37-8.45 25.35-6.45 33.67 3.86q6.88 8.54 5.69 20.51a.47.47 0 0 1-.48.43l-36.18-.04a.61.6 82.6 0 0-.58.76Zm25.55-11.63c-4.91-10.47-20.09-10.88-24.9-.09a.51.51 0 0 0 .47.72h24.03a.44.44 0 0 0 .4-.63ZM197.8 95.03c-3.83 1.71-1.24 6.43 1.87 7.08q7.29 1.52 14.44 3.42c9.61 2.56 12.92 12.5 8.2 20.59-8.94 15.31-36.73 10.4-38.37-7.75q-.06-.62.56-.62h10.56q.59 0 .75.58c1.71 6.23 9.55 8.3 14.6 5.12 3.48-2.2 3.26-6.61-.98-7.86-8.68-2.56-26.71-3.29-24.45-17.56 3.19-20.03 33.78-17.94 38.27.57q.15.65-.51.65h-10.98q-.51 0-.76-.44-4.52-7.65-13.2-3.78Z"/></svg>