<svg xmlns="http://www.w3.org/2000/svg" width="187" height="31" viewBox="0 0 187 31" fill="#F05D2B">
  <path d="M0.894714 29.986C0.726699 26.8531 0.50268 24.3916 0.222656 22.5455C1.8468 23.2727 3.30292 23.7762 4.59103 24.0559C5.87914 24.3357 6.99924 24.5035 7.95132 24.5035C9.23943 24.5035 10.2475 24.3357 10.9756 23.9441C11.7036 23.5524 12.0957 23.0489 12.0957 22.2657C12.0957 22.042 12.0397 21.7622 11.9837 21.5385C11.9277 21.3147 11.7596 21.035 11.5916 20.7552C11.3676 20.4755 11.0876 20.1399 10.6956 19.8042L6.5512 16.2238C5.59912 15.3846 4.92706 14.8252 4.53503 14.4336C3.75096 13.7063 3.13491 12.979 2.74287 12.3636C2.29483 11.7483 2.01481 11.0769 1.79079 10.4056C1.62278 9.73426 1.51077 9.06294 1.51077 8.27972C1.51077 7.38461 1.67878 6.54545 1.9588 5.65035C2.23883 4.81119 2.74287 3.97203 3.35892 3.24476C3.97498 2.51748 4.81505 1.84615 5.87914 1.34266C6.88723 0.783217 8.00732 0.447552 9.18342 0.223776C10.4715 0.111888 11.7036 0 12.9357 0C15.4 0 18.0882 0.27972 21.0004 0.839161C21.0564 1.84615 21.1124 2.74126 21.1684 3.58042C21.2245 4.41958 21.3365 5.87413 21.5605 8C20.2164 7.44056 18.9843 7.10489 17.8642 6.88112C16.7441 6.65734 15.792 6.54545 15.0079 6.54545C13.8878 6.54545 12.9357 6.76923 12.1517 7.16084C11.4236 7.60839 11.0316 8.11189 11.0316 8.72727C11.0316 9.00699 11.0876 9.28671 11.1996 9.56643C11.3116 9.84615 11.5356 10.1818 11.8717 10.5175C12.2077 10.9091 12.5997 11.3007 13.1598 11.7483C13.6638 12.1958 14.5039 12.8671 15.624 13.7063L17.1921 14.9371C17.6401 15.3287 18.1442 15.7762 18.7042 16.3357C19.2643 16.8951 19.7123 17.3986 20.1044 17.958C20.4964 18.4615 20.7764 18.965 21.0004 19.4126C21.2245 19.8601 21.3925 20.3077 21.4485 20.7552C21.5605 21.2028 21.6165 21.6503 21.6165 22.2098C21.6165 23.4965 21.2805 24.7832 20.6644 25.958C20.0484 27.1329 19.1523 28.1399 17.9762 28.8671C16.8001 29.6503 15.568 30.1538 14.1678 30.4895C12.7677 30.8252 11.3116 30.9371 9.79948 30.9371C7.50328 31.0489 4.53503 30.6573 0.894714 29.986Z" fill="#F05D2B"/>
  <path d="M22.0664 30.4332L23.8586 27.3003L35.1715 5.98566L36.3476 3.58006C36.6837 2.85279 37.1877 1.8458 37.8038 0.559082C40.38 0.615026 42.2281 0.615026 43.4602 0.615026C45.5324 0.615026 47.4366 0.615026 49.1727 0.559082L52.365 9.67796L58.8055 27.2444L60.0937 30.4332C57.5734 30.4332 56.0053 30.3773 55.5013 30.3773C54.2692 30.3773 52.477 30.3773 50.0688 30.4332C49.4527 28.0276 48.5007 25.1745 47.2686 21.9297H36.3476C35.0595 24.5031 33.7714 27.3003 32.4273 30.4332C29.6831 30.4332 28.0589 30.3773 27.4429 30.3773C26.3228 30.4332 24.5306 30.4332 22.0664 30.4332ZM39.0359 15.608H45.8684C44.1883 10.4612 43.2362 7.60803 43.0682 7.10454C42.1161 9.23041 41.276 11.0206 40.604 12.3633L39.0359 15.608Z" fill="#F05D2B"/>
  <path d="M62.5 30.4332L62.948 25.8458L63.7881 10.2374L64.0121 3.97167V0.559082C66.2523 0.615026 68.2685 0.615026 70.0046 0.615026C71.2367 0.615026 72.9729 0.615026 75.2691 0.559082L84.5659 17.5661L85.854 20.0836C86.022 17.622 86.19 14.2094 86.358 9.78985C86.5261 5.37027 86.6381 2.29335 86.6381 0.615026C88.4302 0.67097 89.8863 0.67097 90.9504 0.67097C91.4545 0.67097 92.8546 0.67097 95.2628 0.615026L94.7588 7.16048L93.7507 25.2864L93.6387 30.4891C91.7345 30.4891 89.9424 30.4332 88.3182 30.4332C86.9181 30.4332 85.0699 30.4332 82.6057 30.4891C81.8217 29.0346 81.2616 28.0276 80.9256 27.3563L77.2853 21.0905C76.0532 19.0206 74.9331 17.1185 73.925 15.2164C73.2529 14.0416 72.5809 12.7549 71.8528 11.3003L71.4048 21.7059L71.1807 30.4332C69.3886 30.4332 67.9885 30.3773 67.0364 30.3773C66.2523 30.4332 64.7402 30.4332 62.5 30.4332Z" fill="#F05D2B"/>
  <path d="M115.145 30.4332C115.985 18.7409 116.433 9.67796 116.433 3.35628V0.559082C119.009 0.615026 120.689 0.615026 121.585 0.615026C121.977 0.615026 123.545 0.615026 126.289 0.559082C126.009 3.85978 125.841 6.9367 125.673 9.90174C125.449 13.9857 125.337 17.7899 125.225 21.3703C125.113 24.8947 125.113 27.9717 125.113 30.4891L120.633 30.4332C119.625 30.4332 117.833 30.4332 115.145 30.4332Z" fill="#F05D2B"/>
  <path d="M132.617 30.4332C132.897 27.6919 133.065 25.4542 133.233 23.664C133.457 20.4752 133.681 16.1115 133.961 10.5731C134.129 6.71293 134.241 4.02761 134.241 2.40524V0.559082C136.706 0.615026 138.33 0.615026 139.282 0.615026C139.898 0.615026 141.466 0.615026 143.986 0.559082L142.978 16.8947L142.474 30.4332L137.714 30.3773C136.93 30.4332 135.249 30.4332 132.617 30.4332ZM143.594 14.657L148.523 7.99964L152.499 2.46118L153.731 0.559082C156.475 0.615026 158.267 0.615026 159.275 0.615026C159.555 0.615026 161.292 0.615026 164.484 0.559082L155.243 12.1954L153.451 14.5451L155.075 17.1185L164.26 30.4332L158.883 30.3773C157.707 30.3773 155.747 30.3773 152.947 30.4332C151.043 26.9087 147.906 21.65 143.594 14.657Z" fill="#F05D2B"/>
  <path d="M166.668 29.9858C166.5 26.8529 166.276 24.3914 165.996 22.5452C167.62 23.2725 169.076 23.776 170.364 24.0557C171.653 24.3355 172.773 24.5033 173.725 24.5033C175.013 24.5033 176.021 24.3355 176.749 23.9438C177.477 23.5522 177.869 23.0487 177.869 22.2655C177.869 22.0417 177.813 21.762 177.757 21.5383C177.701 21.3145 177.533 21.0348 177.365 20.755C177.141 20.4753 176.861 20.1397 176.469 19.804L172.325 16.2236C171.373 15.3844 170.701 14.825 170.308 14.4334C169.524 13.7061 168.908 12.9788 168.516 12.3634C168.068 11.748 167.788 11.0767 167.564 10.4054C167.34 9.73406 167.284 9.06273 167.284 8.27951C167.284 7.38441 167.452 6.54525 167.732 5.65014C168.068 4.81098 168.516 3.97182 169.132 3.24455C169.748 2.51727 170.588 1.84595 171.653 1.34245C172.717 0.783008 173.781 0.447344 174.957 0.223568C176.133 -0.000208292 177.365 -0.0561523 178.597 -0.0561523C181.061 -0.0561523 183.75 0.223568 186.662 0.783008C186.718 1.79 186.774 2.68511 186.83 3.52427C186.886 4.36343 187.054 5.81797 187.222 7.94385C185.878 7.38441 184.646 7.04874 183.526 6.82497C182.406 6.60119 181.453 6.4893 180.669 6.4893C179.549 6.4893 178.597 6.71308 177.813 7.10469C177.085 7.55224 176.693 8.05574 176.693 8.67112C176.693 8.95084 176.749 9.23056 176.861 9.51028C176.973 9.79 177.197 10.1257 177.533 10.4613C177.869 10.8529 178.261 11.2445 178.821 11.6921C179.325 12.1397 180.165 12.811 181.285 13.6501L182.854 14.8809C183.302 15.2725 183.806 15.7201 184.366 16.2795C184.926 16.839 185.374 17.3424 185.766 17.9019C186.158 18.4054 186.438 18.9089 186.662 19.3564C186.886 19.804 187.054 20.2515 187.11 20.6991C187.222 21.1466 187.278 21.5942 187.278 22.1536C187.278 23.4403 186.942 24.7271 186.326 25.9019C185.71 27.0767 184.814 28.0837 183.638 28.811C182.462 29.5942 181.229 30.0977 179.829 30.4334C178.429 30.769 176.973 30.8809 175.461 30.8809C173.277 31.0487 170.308 30.6571 166.668 29.9858Z" fill="#F05D2B"/>
  <path d="M84.7344 30.4334C85.0144 27.8599 85.2384 25.5662 85.4064 23.4963C85.5744 21.4264 85.6865 19.0767 85.8545 16.3354C85.9665 13.5942 86.0785 10.741 86.1345 7.72006C86.1905 4.69909 86.2465 2.29349 86.2465 0.503281C88.0947 0.559225 89.5508 0.559225 90.6709 0.559225C91.847 0.559225 93.2471 0.503281 94.9272 0.447337C96.6074 0.391393 98.2315 0.335449 99.8557 0.335449C101.704 0.335449 103.384 0.391393 104.84 0.559225C105.96 0.671114 106.912 0.89489 107.808 1.17461C108.704 1.51027 109.488 1.90188 110.105 2.34944C110.721 2.79699 111.225 3.30048 111.617 3.91587C112.009 4.47531 112.345 5.14664 112.569 5.92985C112.793 6.71307 112.905 7.49629 112.905 8.39139C112.905 9.34244 112.793 10.2935 112.513 11.1327C112.289 11.9718 111.897 12.811 111.337 13.5382C110.777 14.2655 110.105 14.9368 109.32 15.4963C108.536 16.0557 107.36 16.6152 105.904 17.1746L107.024 19.9718C107.36 20.755 107.696 21.5382 108.032 22.3215L110.945 28.755C111.057 29.0348 111.281 29.5942 111.617 30.3774C109.208 30.3774 107.584 30.3215 106.744 30.3215C105.68 30.3215 103.944 30.3215 101.592 30.3774C101.368 29.5942 100.92 28.1956 100.304 26.1816C100.08 25.3424 99.8557 24.6711 99.6877 24.1676C99.3516 23.1047 98.7916 21.6501 98.1195 19.804L95.8793 13.5942C96.6634 13.762 97.4475 13.818 98.1755 13.818C99.2396 13.818 100.192 13.6501 101.088 13.3145C101.984 12.9788 102.6 12.4753 103.048 11.804C103.496 11.1327 103.72 10.4054 103.72 9.67811C103.72 9.06272 103.552 8.50328 103.216 7.99978C102.88 7.55223 102.376 7.16062 101.648 6.93685C100.92 6.71307 99.7997 6.60118 98.2875 6.60118C97.7835 6.60118 97.2234 6.60118 96.7194 6.65713C96.1593 6.65713 95.5433 6.71307 94.8152 6.71307C94.6472 9.67811 94.4792 13.3704 94.3112 17.6781C94.1432 21.9858 94.0872 26.1816 94.0312 30.3215C91.567 30.3215 89.9988 30.2655 89.2708 30.2655C88.4307 30.4334 86.8626 30.4334 84.7344 30.4334Z"/>
<script xmlns=""/><link xmlns=""/></svg>