<svg xmlns="http://www.w3.org/2000/svg" width="46440" height="7924" clip-rule="evenodd" version="1.1" xml:space="preserve">

 <g>

  <g>

   <path id="svg_1" fill="#BD2828" d="m17390.15,6100.82c-68.86,192.31 -164.14,362.86 -285.68,511.63c-121.54,148.76 -266.14,266.62 -433.48,353.57c-167.5,86.94 -349.73,130.35 -547.02,130.35l-3316.44,0l0,-3206.34l3385.3,0c165.1,0 325.71,42.42 481.68,127.14c155.81,84.71 294.65,200.33 416.19,346.69c121.54,146.36 219.06,315.94 292.56,508.1c73.18,192.16 110.01,398.25 110.01,617.79c0,215.22 -34.43,418.91 -103.12,611.07zm1214.44,-2296.79l0,0c-218.1,-217.78 -472.55,-389.76 -763.99,-515.94c-291.28,-126.19 -601.94,-189.28 -932.13,-189.28l-5910.51,0l0,4809.58l1816.45,0l-6.88,-7.03l4100.94,0c330.19,0 640.85,-62.94 932.13,-189.12c291.44,-126.03 545.89,-298.18 763.99,-515.96c217.78,-217.93 389.77,-472.38 515.95,-763.82c126.03,-291.3 189.28,-602.1 189.28,-932.3c0,-330.35 -63.25,-641.01 -189.28,-932.45c-126.18,-291.12 -298.17,-545.73 -515.95,-763.68z" class="fil0"/>
   <path id="svg_2" fill="#BD2828" d="m25800.48,5878.56c169.75,0 314.19,58.93 433.48,176.62c119.3,117.54 178.87,259.42 178.87,425.48c0,92.23 -19.53,177.74 -58.45,256.05c-39.07,78.45 -90.63,145.4 -154.68,200.8c-59.73,64.53 -158.38,110.66 -295.93,138.36c-23.06,4.48 -57.49,6.89 -103.29,6.89l-3240.76,0l0,-3213.39l3240.76,0c169.75,0 314.19,58.45 433.48,175.5c119.3,116.9 178.87,257.98 178.87,423.08c0,165.25 -59.57,306.32 -178.87,423.22c-119.29,116.9 -263.73,175.51 -433.48,175.51l-1844.09,13.77c-330.19,22.9 -612.34,153.73 -846.14,392.17l-392.32,405.94l3082.55,0zm2122.73,-825.65l0,0c148.92,-174.38 245.32,-360.14 289.04,-557.43c43.39,-197.11 26.26,-395.52 -51.73,-595.21c-77.98,-199.52 -227.07,-383.99 -447.09,-553.73c-114.81,-82.63 -244.36,-147.97 -388.8,-196.17c-144.44,-48.2 -304.09,-72.22 -478.32,-72.22l-6103.14,0l0,4816.32l6103.14,0c174.23,0 333.88,-24.02 478.32,-72.07c144.44,-48.2 273.99,-113.52 388.8,-196.15c220.02,-169.58 369.11,-354.38 447.09,-553.9c77.99,-199.53 95.12,-397.93 51.73,-595.22c-43.72,-197.12 -140.12,-381.75 -289.04,-553.9c-149.09,-171.98 -340.61,-317.54 -574.56,-436.85c233.95,-114.64 425.47,-259.08 574.56,-433.47z" class="fil0"/>
   <path id="svg_3" fill="#BD2828" d="m34588.42,3177.92c-183.03,57.32 -352.78,135.31 -509.06,233.95c-155.97,98.63 -306.18,212.18 -450.62,340.6c-144.44,128.43 -296.89,263.73 -457.66,405.94l-2614.49,2332.48l0,-3398.97l-887.61,0l0,4809.44l2139.85,0l4128.23,-3832.48l0,3832.48l887.61,0l0,-4809.44l-1602.93,0c-238.59,0 -449.49,28.67 -633.32,86z" class="fil0"/>
   <path id="svg_4" fill="#BD2828" d="m45730.62,5087.34l0,-2002.3l-1816.54,0l0,2002.3l-2532.18,0c-376.16,0 -694.98,130.67 -956.32,392.17l-343.96,343.96l0,-2738.43l-1823.6,0l0,4816.32l1816.39,0l0,-2002.15l3839.67,0l0,2002.15l1816.54,0l0,-2024.73l709.39,0l0,-789.29l-709.39,0z" class="fil0"/>
   <path id="svg_5" fill="#BD2828" d="m9707.96,5352.66l-177.53,-174.76l-670.36,-660.44l-398.32,-392.16l-1025.73,-1010.14l-292.34,-287.59l-947.74,-933.27l-115.16,-113.21l-504.62,-496.93c-835.28,-822.97 -1960.92,-1284.16 -3133.57,-1284.16c63.49,104.6 140.79,201.72 231.48,292.35l1511.65,1488.74l-4185.72,0c81.48,754.13 714.34,1334.07 1492.16,1334.07l4048,0l670.35,660.05l355.45,350.09l-6565.96,0c81.48,754.11 714.34,1334.25 1492.16,1334.25l6428.99,0l938.92,924.29l208.91,206.31l-9068.98,0c81.48,754.13 714.34,1334.05 1492.16,1334.05l7159,0c216.16,0 420.5,-44.35 604.54,-125.04c416.62,-181.64 731.91,-545.71 847.88,-993.34c31.67,-122.35 48.94,-250.08 48.94,-382.97c0,-136.91 -17.27,-267.7 -48.94,-390.25c-68.1,-262.35 -205.91,-490.07 -395.62,-679.94z" class="fil0"/>
  </g>
 </g>
<script xmlns=""/><link xmlns=""/></svg>