<svg xmlns="http://www.w3.org/2000/svg" width="221" height="30" viewBox="0 0 221 30" fill="none">
<path d="M32.8325 26.7204C32.8325 28.0962 31.1879 29.2714 29.2866 29.2714C27.3345 29.2714 25.6392 28.0962 25.6392 26.7204V12.7931L19.7801 21.8615C19.1116 22.9142 17.8281 23.4005 16.3894 23.4005C15.0044 23.4005 13.718 22.9142 13.0495 21.8615L7.19329 12.7931V26.7204C7.19329 28.0962 5.49794 29.2714 3.4951 29.2714C1.54022 29.2714 0 28.0962 0 26.7204V2.67195C0 1.13291 1.59382 -0.000814438 3.69822 -0.000814438C5.3428 -0.000814438 6.62912 0.525942 7.29767 1.57861L16.4402 15.8697L25.5884 1.53823C26.3077 0.364111 27.6956 -0.000814438 29.1343 -0.000814438C31.2387 -0.000814438 32.8325 1.21398 32.8325 2.67195V26.7204Z" fill="#9E5A44"/>
<path d="M44.187 27.3677C43.6731 28.5428 42.0285 29.2714 40.795 29.2714C38.7937 29.2714 37.0977 28.2186 37.0977 26.6797C37.0977 26.4781 37.1491 25.991 37.2488 25.7891L47.2707 2.75284C47.9388 1.17334 48.9637 -0.000852585 51.4306 -0.000852585C53.8975 -0.000852585 54.9254 1.13278 55.645 2.75284L65.6638 25.7891C65.7666 25.991 65.818 26.4781 65.818 26.6797C65.818 28.2186 64.2248 29.2714 62.1176 29.2714C60.7813 29.2714 59.1367 28.5013 58.6228 27.3677L56.827 23.2797H45.883L44.187 27.3677ZM52.3557 11.7413C51.8932 10.5662 51.6362 9.02726 51.4306 7.77286C51.225 9.02726 50.9681 10.5662 50.5055 11.7413L47.7816 18.6629H54.9768L52.3557 11.7413Z" fill="#9E5A44"/>
<path d="M75.6872 27.6513V27.6118C75.1224 28.3406 74.1982 29.2714 72.3978 29.2714C70.5493 29.2714 68.9062 27.9749 68.9062 26.6395C68.9062 26.1944 69.163 25.5868 69.4197 25.2636L78.3059 14.0876L70.1386 3.9261C69.8819 3.52188 69.7246 2.99523 69.7246 2.55052C69.7246 1.25333 71.3196 -0.000785828 73.1713 -0.000785828C74.763 -0.000785828 75.9953 0.889927 76.7174 1.86129L82.5228 9.39278L88.325 1.86129C88.9957 1.09236 90.1253 -0.000785828 91.9225 -0.000785828C93.7196 -0.000785828 95.3146 1.17332 95.3146 2.59068C95.3146 2.99523 95.1092 3.48139 94.8524 3.9261L86.7332 14.0876L95.6227 25.2636C95.8794 25.5868 96.1361 26.1944 96.1361 26.6395C96.1361 27.9749 94.4417 29.2714 92.6959 29.2714C90.8955 29.2714 89.9713 28.4215 89.3551 27.6513L82.5228 18.7439L75.6872 27.6513Z" fill="#9E5A44"/>
<path d="M98.5938 18.6234V10.6077C98.5938 4.85705 102.348 -0.000659943 111.953 -0.000659943C121.562 -0.000659943 125.313 4.85705 125.313 10.6077V18.6234C125.313 24.5341 120.844 29.2714 111.953 29.2714C103.066 29.2714 98.5938 24.5341 98.5938 18.6234ZM105.787 10.6077V18.6234C105.787 21.8615 107.742 24.1298 111.953 24.1298C116.168 24.1298 118.12 21.8615 118.12 18.6234V10.6077C118.12 7.32814 116.477 5.14067 111.953 5.14067C107.434 5.14067 105.787 7.32814 105.787 10.6077Z" fill="#9E5A44"/>
<path d="M149.956 27.8547L138.033 11.4967V26.64C138.033 28.0564 136.341 29.2714 134.388 29.2714C132.385 29.2714 130.84 28.0564 130.84 26.64V2.75384C130.84 1.1742 132.435 6.67572e-05 134.592 6.67572e-05C135.979 6.67572e-05 137.366 0.606874 138.087 1.49753C142.66 7.73318 145.279 11.4157 150.007 17.9355V2.6322C150.007 1.21476 151.702 6.67572e-05 153.655 6.67572e-05C155.658 6.67572e-05 157.2 1.21476 157.2 2.6322V26.5184C157.2 28.0169 155.658 29.2714 153.397 29.2714C152.06 29.2714 150.623 28.7048 149.956 27.8547Z" fill="#9E5A44"/>
<path d="M162.703 18.6235V10.6079C162.703 4.85757 166.454 -0.000677109 176.063 -0.000677109C185.672 -0.000677109 189.424 4.85757 189.424 10.6079V18.6235C189.424 24.5344 184.954 29.2714 176.063 29.2714C167.177 29.2714 162.703 24.5344 162.703 18.6235ZM169.899 10.6079V18.6235C169.899 21.8616 171.851 24.13 176.063 24.13C180.276 24.13 182.231 21.8616 182.231 18.6235V10.6079C182.231 7.32852 180.586 5.14117 176.063 5.14117C171.541 5.14117 169.899 7.32852 169.899 10.6079Z" fill="#9E5A44"/>
<path d="M213.407 16.7208L220.444 25.0608C222.14 27.086 219.623 29.2308 217.31 29.2308C216.027 29.2308 214.948 28.7862 214.279 27.9755L205.645 17.3289H202.153V26.5987C202.153 28.017 200.457 29.2714 198.505 29.2714C196.606 29.2714 194.961 28.0565 194.961 26.5987V3.27985C194.961 1.70007 196.761 0.365114 198.864 0.365114H207.804C217.465 0.365114 220.547 4.69618 220.547 8.9471C220.547 12.956 217.823 15.5872 213.407 16.7208ZM207.601 5.50561H202.153V12.2267H207.907C211.456 12.2267 213.355 11.0532 213.355 8.9471C213.355 7.24729 212.276 5.50561 207.601 5.50561Z" fill="#9E5A44"/>
<script xmlns=""/><link xmlns=""/></svg>