<svg xmlns="http://www.w3.org/2000/svg" width="272" height="48" viewBox="0 0 272 44" fill="none">
    <path d="M58.797 28.8234L55.1707 38.7095H50.3357L63.4018 4.83832H68.6973L81.1878 38.7095H76.1225L72.6689 28.8234H58.797ZM70.9997 24.7791L65.8768 9.83754H65.7617L60.236 24.7791H70.9997Z" fill="#203566"/>
    <path d="M109.141 41.5962L104.539 38.0489C102.411 39.7634 99.7655 40.7094 96.0845 40.7094C86.4217 40.7094 81.1877 30.6586 81.1877 21.9677C81.1877 14.1636 85.0988 3.22609 96.142 3.22609C107.99 3.22609 111.384 14.2819 111.384 22.0268C111.384 26.5201 110.636 32.0776 107.473 35.8022L111.441 38.6992C112.132 39.2313 112.247 40.2955 111.671 41.005L111.326 41.4188C110.809 42.01 109.831 42.1283 109.141 41.5962ZM101.376 30.5995L104.367 32.9644C106.783 30.4813 107.07 26.461 107.07 21.9086C107.07 13.5133 103.619 6.89164 96.0845 6.89164C88.5498 6.89164 85.6164 13.5133 85.6164 21.9677C85.6164 30.363 89.7576 36.4526 96.0845 36.4526C98.04 36.4526 99.9956 36.3343 101.376 34.8563L99.2479 33.1418C98.4426 32.4914 98.0975 31.7228 98.7302 30.8951C99.4204 30.0674 100.571 29.9492 101.376 30.5995Z" fill="#203566"/>
    <path d="M142.893 4.83832V27.2886C142.893 34.351 139.094 40.3224 129.875 40.3224C120.823 40.3224 116.912 34.351 116.912 27.9202V4.83832H121.438V26.657C121.438 34.1213 125.964 36.2458 130.042 36.2458C134.233 36.2458 138.312 34.2361 138.312 26.7718V4.83832H142.893Z" fill="#203566"/>
    <path d="M154.603 28.8234L150.976 38.7095H146.141L159.207 4.83832H164.503L176.993 38.7095H171.871L168.417 28.8234H154.603ZM166.805 24.7791L161.683 9.83754H161.567L156.042 24.7791H166.805Z" fill="#203566"/>
    <path d="M203.893 4.83832H207.847V38.7095H203.215L185.932 11.4103H185.82V38.7095H181.866V4.83832H186.78L203.78 32.1375H203.893V4.83832Z" fill="#203566"/>
    <path d="M238.698 38.7095H214.341V4.83832H238.34V8.88935H218.639V18.3418H236.668V22.3928H218.639V34.6584H238.698V38.7095Z" fill="#203566"/>
    <path d="M254.112 38.7095V8.88935H241.944V4.83832H271.172V8.88935H259.003V38.7095H254.112Z" fill="#203566"/>
    <path d="M42.8504 16.1288C43.4567 18.123 43.7874 20.2279 43.7874 22.3882C43.7874 34.0207 34.3626 43.5483 22.7332 43.5483C22.7332 43.5483 22.7332 43.5483 22.7883 43.5483C34.4177 43.5483 43.8425 34.0761 43.8425 22.3882C43.8425 20.2279 43.5118 18.123 42.8504 16.1288C42.9055 16.1288 42.9055 16.1288 42.8504 16.1288Z" fill="#203566"/>
    <path d="M17.6591 13.5265C29.5078 12.3279 33.4383 13.0128 38.6221 9.53131C39.0209 9.24594 39.0778 8.73227 38.793 8.33276C36.6853 5.87859 33.6092 3.31027 30.761 1.94051C30.5331 1.82636 30.3053 1.71221 30.0204 1.59806C27.457 0.570737 24.6657 0 21.7036 0C9.74098 0 0 9.7596 0 21.8021C0 22.487 0.854472 22.8295 1.36715 22.3729C5.9813 17.7499 10.2537 14.2684 17.6591 13.5265Z" fill="#203566"/>
    <path d="M43.8451 21.7357C43.8451 19.4576 43.1059 15.9834 41.855 12.908C41.855 12.908 41.5139 12.1676 41.2864 11.598C41.1159 11.2563 40.7178 11.1994 40.4904 11.4272C37.4768 14.5596 31.3928 19.8562 23.1481 20.141C13.482 20.4258 9.55864 21.1662 3.98637 24.0708C2.05314 25.0959 1.14338 27.3741 1.88256 29.4244C4.95299 37.6256 12.9134 43.4918 22.1815 43.5487C34.1221 43.4918 43.8451 33.6959 43.8451 21.7357Z" fill="#203566"/>
    </svg>