<svg xmlns="http://www.w3.org/2000/svg" xmlns:xlink="http://www.w3.org/1999/xlink" width="224px" height="48px" viewBox="0 0 224 48" version="1.1">
    <defs/>
    <g id="Symbols" stroke="none" stroke-width="1" fill="none" fill-rule="evenodd">
        <g id="Header/Normal" transform="translate(-665.000000, -63.000000)">
            <g id="Header">
                <g id="Logo/main" transform="translate(665.000000, 63.000000)">
                    <path d="M165.172937,40.6571429 C164.746652,40.088 164.532937,39.504 164.532937,38.9097143 L164.53408,22.2502857 C164.53408,21.7028571 164.735223,21.2274286 165.138652,20.8205714 C165.540937,20.4194286 166.016366,20.2148571 166.562652,20.2148571 L167.096366,20.2148571 L167.096366,19.4685714 L159.084937,19.4685714 L159.084937,20.2148571 L159.618652,20.2148571 C160.162652,20.2148571 160.639223,20.4194286 161.042652,20.8205714 C161.44608,21.2274286 161.647223,21.7028571 161.647223,22.2502857 L161.647223,38.9097143 C161.647223,39.4811429 161.42208,40.0731429 160.970652,40.6925714 C160.520366,41.312 160.02208,41.6194286 159.475794,41.6194286 L158.978652,41.6194286 L158.978652,42.368 L167.202652,42.368 L167.202652,41.6194286 L166.705509,41.6194286 C166.13408,41.6194286 165.624366,41.2982857 165.172937,40.6571429 Z M141.983223,30.688 C141.698652,30.7348571 140.594652,30.7588571 138.672366,30.7588571 L138.672366,21.2114286 L141.447223,21.2114286 C142.849509,21.2114286 144.035794,21.7108571 145.011794,22.7085714 C145.914652,23.6822857 146.36608,24.8114286 146.36608,26.0925714 C146.36608,27.352 145.890652,28.4411429 144.938652,29.3702857 C144.179794,30.1051429 143.194652,30.544 141.983223,30.688 Z M148.858652,36.4925714 C148.311223,35.6377143 147.76608,34.7702857 147.224366,33.8914286 C146.580937,32.9417143 145.938652,32.2297143 145.297509,31.7542857 C146.556937,31.28 147.587794,30.5154286 148.394652,29.4582857 C149.201509,28.4022857 149.60608,27.208 149.60608,25.8777143 C149.60608,24.0502857 148.880366,22.5074286 147.434652,21.2491429 C146.032366,20.0617143 144.403794,19.4685714 142.552366,19.4685714 L132.935223,19.4685714 L132.935223,20.2148571 L133.898652,20.2148571 C134.419794,20.24 134.864366,20.4525714 135.233509,20.8582857 C135.601509,21.2617143 135.786652,21.7257143 135.786652,22.2502857 L135.786652,38.9097143 C135.786652,39.504 135.571794,40.088 135.145509,40.6571429 C134.69408,41.2982857 134.18208,41.6194286 133.611794,41.6194286 L133.114652,41.6194286 L133.114652,42.368 L141.343223,42.368 L141.343223,41.6194286 L140.80608,41.6194286 C140.260937,41.6194286 139.762652,41.2982857 139.312366,40.6594286 C138.882652,40.088 138.672366,39.5074286 138.672366,38.912 L138.672366,32.2902857 L140.843794,32.2902857 C141.959223,32.3611429 143.003794,32.9897143 143.977509,34.1771429 C144.548937,34.8651429 145.331794,36.1222857 146.331794,37.9508571 C147.54208,40.1588571 148.513509,41.6331429 149.249509,42.368 L154.875794,42.368 L154.875794,41.6194286 C153.761509,41.6194286 152.668937,41.0857143 151.599223,40.0171429 C150.980937,39.4 150.066652,38.2251429 148.858652,36.4925714 Z M187.643794,31.8274286 L188.140937,31.8274286 C188.735223,31.8274286 189.247223,32.0148571 189.673509,32.3954286 C190.099794,32.776 190.314652,33.2388571 190.314652,33.784 L190.314652,40.1588571 C189.056366,40.8491429 187.45408,41.1942857 185.506652,41.1942857 C182.753509,41.1942857 180.46208,40.1485714 178.633509,38.0571429 C176.875794,36.064 175.996937,33.6914286 175.996937,30.9348571 C175.996937,28.1565714 176.89408,25.7977143 178.687223,23.848 C180.476937,21.9005714 182.753509,20.9268571 185.506652,20.9268571 C186.955794,20.9268571 188.256366,21.2902857 189.40608,22.016 C190.55808,22.7382857 191.394652,23.7531429 191.916937,25.0605714 L192.736366,25.0605714 L192.736366,19.2891429 L191.99008,19.1817143 C191.939794,19.4925714 191.72608,19.7177143 191.348937,19.8605714 C190.967223,20.0022857 190.635794,20.0125714 190.35008,19.8948571 C188.735223,19.2537143 187.083794,18.9325714 185.399223,18.9325714 C182.002652,18.9325714 179.059794,20.072 176.569509,22.3531429 C174.002652,24.7028571 172.719223,27.5634286 172.719223,30.9348571 C172.719223,34.2834286 174.002652,37.1337143 176.569509,39.4834286 C179.059794,41.7622857 182.002652,42.9028571 185.399223,42.9028571 C187.15808,42.9028571 188.640366,42.7245714 189.851794,42.368 C190.135223,42.2731429 190.433509,42.2274286 190.740937,42.2274286 C191.407223,42.2274286 192.011794,42.416 192.560366,42.7954286 L193.200366,42.7954286 L193.200366,33.784 C193.200366,33.2628571 193.412937,32.8057143 193.840366,32.4137143 C194.27008,32.0205714 194.776366,31.8274286 195.372937,31.8274286 L195.87008,31.8274286 L195.87008,31.0788571 L187.643794,31.0788571 L187.643794,31.8274286 Z M123.769509,30.0102857 C122.891794,31.1977143 121.775223,31.792 120.42208,31.792 C118.736366,31.792 117.52608,31.424 116.788937,30.688 L116.788937,20.8914286 L120.49408,20.8914286 C121.84608,20.8914286 122.95008,21.4742857 123.80608,22.6377143 C124.563794,23.6822857 124.945509,24.9062857 124.945509,26.3074286 C124.945509,27.7074286 124.554652,28.9405714 123.769509,30.0102857 Z M125.835794,21.1771429 C124.339794,20.0365714 122.535223,19.4685714 120.42208,19.4685714 L110.592366,19.4685714 L110.592366,20.2148571 L111.840366,20.2148571 C112.386652,20.2148571 112.860937,20.4194286 113.26208,20.8205714 C113.668937,21.2274286 113.868937,21.7028571 113.868937,22.2502857 L113.868937,38.9097143 C113.868937,39.504 113.655223,40.088 113.228937,40.6571429 C112.777509,41.2982857 112.27808,41.6194286 111.732937,41.6194286 L110.73408,41.6194286 L110.73408,42.368 L120.672366,42.368 L120.672366,41.6194286 L118.927223,41.6194286 C118.355794,41.6194286 117.84608,41.2982857 117.394652,40.6594286 C116.992366,40.088 116.788937,39.5074286 116.788937,38.912 L116.788937,32.0765714 C117.904366,32.5965714 119.116937,32.8582857 120.42208,32.8582857 C122.417509,32.8582857 124.185509,32.2514286 125.728366,31.0422857 C127.415223,29.76 128.257509,28.1337143 128.257509,26.1611429 C128.257509,24.0971429 127.449509,22.4365714 125.835794,21.1771429 Z M91.2403658,32.1828571 L94.3923658,22.7805714 L98.0415087,32.1828571 L91.2403658,32.1828571 Z M105.111223,40.6594286 C104.411794,40.0171429 103.94208,39.4 103.704366,38.8057143 L96.2255087,19.4685714 L93.9466515,19.4685714 L87.4643658,38.8057143 C87.2506515,39.4 86.8357944,40.0057143 86.2186515,40.6228571 C85.5283658,41.288 84.8860801,41.6194286 84.2940801,41.6194286 L83.759223,41.6194286 L83.759223,42.368 L91.2403658,42.368 L91.2403658,41.6194286 C90.9317944,41.6194286 90.5866515,41.5725714 90.2060801,41.4777143 C89.2803658,41.1462857 88.8175087,40.4948571 88.8175087,39.5188571 C88.8175087,39.2822857 88.8643658,39.0308571 88.9603658,38.7714286 L90.6346515,33.8194286 L98.6826515,33.8194286 L101.033509,39.8754286 C101.200366,40.2788571 101.14208,40.672 100.855223,41.0491429 C100.570652,41.4297143 100.178652,41.6194286 99.6803658,41.6194286 L99.1477944,41.6194286 L99.1477944,42.368 L107.585509,42.368 L107.585509,41.6194286 L107.052937,41.6194286 C106.458652,41.6194286 105.812937,41.2982857 105.111223,40.6594286 Z M72.271223,41.0137143 C69.6826515,41.0137143 67.5100801,39.9588571 65.7523658,37.8457143 C64.1146515,35.8754286 63.295223,33.5702857 63.295223,30.9348571 C63.295223,28.2754286 64.1146515,25.96 65.7523658,23.9908571 C67.5100801,21.8765714 69.6826515,20.8194286 72.271223,20.8194286 C73.9100801,20.8194286 75.3215087,21.2114286 76.5077944,21.9954286 C77.695223,22.7805714 78.5146515,23.8011429 78.9649373,25.0605714 L79.7866515,25.0605714 L79.7866515,19.2891429 L79.0380801,19.1817143 C79.0117944,19.3725714 78.8826515,19.5634286 78.6460801,19.7531429 C78.2175087,20.0125714 77.8140801,20.0617143 77.4335087,19.8948571 C75.8437944,19.2537143 74.1946515,18.9325714 72.4826515,18.9325714 C69.0895087,18.9325714 66.1215087,20.0857143 63.5809373,22.3885714 C61.0403658,24.6925714 59.7683658,27.5405714 59.7683658,30.9348571 C59.7683658,34.2834286 61.0403658,37.1337143 63.5809373,39.4834286 C66.0506515,41.7394286 68.9237944,42.8777143 72.1980801,42.9028571 C75.095223,42.9257143 77.7557944,41.9645714 80.1763658,40.0171429 L80.1763658,36.9542857 L79.359223,36.9542857 C77.8380801,39.6605714 75.4757944,41.0137143 72.271223,41.0137143 Z M219.091794,37.3462857 C218.14208,39.0811429 216.801509,40.2788571 215.066652,40.944 C214.236937,41.2788571 213.38208,41.4434286 212.504366,41.4434286 C210.559223,41.4434286 208.714652,40.6811429 206.984366,39.1622857 C205.394652,37.7622857 204.25408,36.0537143 203.564937,34.0342857 C203.113509,32.7291429 202.887223,31.3405714 202.887223,29.8662857 C202.888366,27.872 203.30208,26.0925714 204.13408,24.5245714 C205.083794,22.792 206.426652,21.5942857 208.15808,20.9268571 C209.012937,20.5954286 209.87008,20.4285714 210.722652,20.4285714 C212.692937,20.4285714 214.53408,21.1885714 216.243794,22.7085714 C217.835794,24.1085714 218.971794,25.8194286 219.663223,27.8377143 C220.114652,29.1417143 220.339794,30.5302857 220.339794,32.0034286 C220.339794,33.9977143 219.923794,35.7805714 219.091794,37.3462857 Z M220.036937,22.4765714 C217.697509,20.1154286 214.889509,18.9325714 211.615223,18.9325714 C208.361509,18.9325714 205.559223,20.1154286 203.209509,22.4765714 C200.858652,24.84 199.683794,27.6582857 199.683794,30.9348571 C199.683794,34.1885714 200.858652,36.9977143 203.209509,39.3588571 C205.559223,41.7211429 208.360366,42.9028571 211.615223,42.9028571 C214.889509,42.9028571 217.697509,41.7268571 220.036937,39.3748571 C222.375223,37.0251429 223.543223,34.2125714 223.543223,30.9348571 C223.543223,27.6582857 222.375223,24.84 220.036937,22.4765714 L220.036937,22.4765714 Z" id="Fill-14" fill="#CA482C"/>
                    <path d="M45.6975087,34.0902857 C45.2917944,38.016 42.9009373,42.9394286 36.6735087,45.0937143 C32.5020801,46.5348571 28.1546515,45.8194286 24.5980801,44.0925714 C28.143223,42.3874286 31.3146515,39.9817143 33.7237944,36.9291429 C37.5786515,32.0422857 39.0529373,27.2171429 38.4026515,22.8205714 C39.5660801,23.1314286 40.6106515,23.5794286 41.4209373,24.0914286 C45.0917944,26.4045714 46.1020801,30.1737143 45.6975087,34.0902857 Z M18.3946515,39.0582857 C15.5615087,35.0777143 14.7706515,30.232 15.8449373,24.4102857 C18.2049373,23.2137143 20.7489373,21.9565714 23.3123658,20.648 C26.6986515,18.9177143 30.1203658,16.9577143 32.9980801,15.2194286 C33.111223,15.3485714 33.2220801,15.4788571 33.3249373,15.6125714 C34.4415087,17.0777143 35.3729373,19.0731429 35.807223,21.4285714 C33.8357944,21.392 31.8095087,21.784 29.9546515,22.7462857 C26.767223,24.3988571 25.2506515,27.3554286 25.3295087,30.1714286 C25.3969373,32.7188571 26.0197944,33.312 25.9740801,33.2857143 L26.8163658,33.7165714 C26.8163658,33.7165714 26.8529373,33.736 26.8255087,33.704 C26.6517944,33.5017143 26.0677944,32.6765714 26.015223,30.2171429 C25.9477944,27.2434286 27.5157944,25.048 30.4140801,23.4754286 C32.1260801,22.5474286 34.0917944,22.2777143 35.9580801,22.4125714 C36.4426515,26.5005714 35.4106515,31.5302857 31.3786515,36.7245714 C29.0495087,39.728 26.2460801,41.8502857 23.1535087,43.3142857 C21.1615087,42.12 19.5055087,40.6194286 18.3946515,39.0582857 Z M15.2175087,45.6811429 C11.6860801,46.232 8.66208011,45.6057143 6.37065154,44.384 C3.73522297,42.9771429 2.12265154,40.512 2.06436582,37.56 C1.99350868,33.9497143 3.74665154,31.4217143 7.95579439,28.736 C9.26779439,27.8994286 10.8540801,27.0114286 12.6129373,26.08 C11.5237944,31.4708571 12.615223,36.8685714 16.063223,41.0011429 C17.2015087,42.3657143 18.695223,43.5074286 20.4003658,44.4217143 C18.7260801,44.9885714 16.991223,45.4022857 15.2175087,45.6811429 Z M16.383223,21.9897143 C17.3603658,18.2182857 19.9260801,14.3462857 22.6243658,11.2148571 C26.4940801,11.368 30.0140801,12.5005714 32.2415087,14.4651429 C29.3317944,16.2297143 26.0495087,17.9828571 22.7946515,19.7325714 C20.4655087,20.9851429 18.2175087,22.0948571 16.111223,23.1188571 C16.1957944,22.7462857 16.2837944,22.3702857 16.383223,21.9897143 Z M28.7946515,5.41828571 C34.4586515,1.52571429 38.8735087,0.326857143 41.2415087,1.40685714 C43.903223,2.61942857 42.5443658,6.35542857 38.6266515,9.91314286 C37.1763658,11.2297143 35.3317944,12.5348571 33.2655087,13.8331429 C30.6803658,11.8651429 27.0780801,10.7337143 23.2460801,10.5074286 C25.2917944,8.22857143 27.3523658,6.41028571 28.7946515,5.41828571 Z M42.5340801,23.3474286 C41.2860801,22.5771429 39.7900801,21.9931429 38.1889373,21.6811429 C37.6849373,19.5508571 36.6723658,17.5325714 35.1775087,15.6708571 C34.8563658,15.272 34.4997944,14.8948571 34.1157944,14.5394286 C36.4186515,13.1257143 38.2780801,11.9142857 39.3306515,11.184 C42.8860801,8.71771429 45.4746515,5.38971429 44.9466515,2.41028571 C44.663223,0.804571429 43.0483658,0.00457142857 40.7180801,0 L40.6529373,0 C37.4323658,0.0137142857 32.8689373,1.52914286 28.5523658,4.52457143 C26.0860801,6.23885714 23.7386515,8.264 21.6346515,10.4685714 C17.1957944,10.4971429 12.6026515,11.7108571 9.04036582,14.2102857 C6.04036582,16.3142857 4.42322297,19.2651429 4.18322297,21.7222857 C3.93065154,24.3394286 5.05408011,26.2297143 5.12950868,26.3451429 C5.12950868,26.3451429 6.08608011,26.8811429 6.03465154,26.7942857 C5.92950868,26.6125714 4.47808011,24.4685714 4.77408011,21.8068571 C5.08950868,18.9874286 7.05979439,16.2057143 9.88493725,14.4434286 C13.2129373,12.3657143 17.1763658,11.3325714 20.9500801,11.2091429 C17.7443658,14.7177143 15.1626515,18.6274286 13.6815087,22.4434286 C13.3969373,23.1748571 13.1603658,23.912 12.9580801,24.6502857 C10.823223,25.6948571 8.89865154,26.6708571 7.27922297,27.6514286 C2.53179439,30.52 -0.564205606,33.9782857 0.086080108,38.9954286 C0.823222965,44.6765714 7.47008011,47.7222857 14.927223,46.8754286 C17.3340801,46.6022857 19.7215087,46.032 22.0037944,45.1908571 C27.2563658,47.4171429 33.9260801,47.6902857 38.6597944,45.7177143 C43.6575087,43.6365714 48.2346515,39.5051429 48.2346515,33.0777143 C48.2346515,28.5851429 45.8323658,25.3851429 42.5340801,23.3474286 L42.5340801,23.3474286 Z" id="Fill-15" fill="#1A1918"/>
                </g>
            </g>
        </g>
    </g>
</svg>