<svg xmlns="http://www.w3.org/2000/svg" width="151" height="100" viewBox="0 0 151 100" fill="none">
<path d="M49.9055 57.656C43.6044 57.656 37.4922 58.4121 31.6321 59.8614V67.0448C37.6182 65.5325 43.7934 64.7763 50.2206 64.7763C56.3328 64.7763 62.3189 65.4695 68.053 66.8557C72.2118 67.8639 76.5596 68.494 80.9705 68.8091C85.0032 66.5407 88.91 64.0202 92.6907 61.3737C92.7537 61.3107 92.8167 61.2477 92.8167 61.1846C92.8167 61.0586 92.6907 60.9326 92.5647 60.9326C90.1702 61.5627 87.7127 61.8778 85.1923 61.8778C79.1431 61.8778 73.346 61.1846 67.7379 59.7984C62.0038 58.4121 56.0807 57.656 49.9055 57.656ZM46.4399 37.4921C46.4399 38.6894 45.8098 39.8236 44.8646 40.3907C43.9824 40.9578 43.0372 41.3359 42.0291 41.5249C40.8948 41.7139 39.7606 41.84 38.5634 41.84V34.4676H42.4071C42.9742 34.4676 43.6044 34.5306 44.1715 34.6566C45.4317 34.9087 46.4399 36.1059 46.4399 37.4921ZM54.3164 53.9383L48.5193 43.7933C48.7713 43.6673 49.0864 43.6043 49.3384 43.4783C51.6699 42.4701 53.3082 40.1386 53.3082 37.4291C53.3082 34.9087 51.6699 32.7662 49.4015 32.0731C48.3303 31.7581 47.259 31.506 46.1248 31.443C45.0536 31.38 43.9824 31.317 42.9112 31.317H31.6321V54.0013H38.5634V45.0536C39.6346 45.0536 40.6428 44.9906 41.651 44.9276L46.4399 53.9383H54.3164ZM70.5105 45.8097C70.5105 46.9439 70.4475 48.0151 70.2584 49.0863C70.0694 50.2206 69.2502 51.1027 68.179 51.3548C67.6749 51.4808 67.1708 51.5438 66.6667 51.5438C66.1626 51.5438 65.6585 51.4808 65.1544 51.3548C64.0832 51.0397 63.2641 50.1576 63.1381 49.0863C62.949 48.0151 62.886 46.8809 62.886 45.8097C62.886 44.6755 62.949 43.6043 63.1381 42.5331C63.3271 41.3989 64.0832 40.5167 65.1544 40.2647C65.6585 40.1386 66.1626 40.0756 66.6667 40.0756C67.1708 40.0756 67.6749 40.1386 68.179 40.2647C69.2502 40.5797 70.0694 41.4619 70.2584 42.5331C70.3844 43.6043 70.5105 44.6755 70.5105 45.8097ZM76.8117 48.2672C76.9377 47.511 77.0637 46.6919 77.0637 45.8097C77.0637 44.9906 77.0007 44.1714 76.8117 43.4153C76.3076 40.6427 74.2282 38.5003 71.5187 37.8072C70.0064 37.4291 68.3681 37.2401 66.7297 37.2401C65.0914 37.2401 63.4531 37.4291 61.9408 37.8072C59.2313 38.5003 57.1519 40.7058 56.6478 43.4153C56.5218 44.1714 56.3958 44.9906 56.3958 45.8097C56.3958 46.6289 56.4588 47.448 56.6478 48.2672C57.1519 51.0397 59.2313 53.1821 61.9408 53.8753C63.4531 54.2533 65.0914 54.4424 66.7297 54.4424C68.3681 54.4424 70.0064 54.2533 71.5187 53.8753C74.2282 53.1821 76.3076 50.9767 76.8117 48.2672ZM87.3347 48.3302C87.1456 47.511 87.0196 46.6919 87.0196 45.8097C87.0196 44.9276 87.0826 44.1084 87.3347 43.2892C87.5867 42.3441 88.2168 41.5249 89.162 41.1468C89.8551 40.8318 90.6113 40.7058 91.3674 40.7058C92.8797 40.7058 94.266 40.8948 95.7152 41.2099L96.7865 38.1853C94.7701 37.5552 92.6277 37.1771 90.4222 37.1771C88.6579 37.1771 87.0196 37.4921 85.4443 38.0593C83.0499 38.9414 81.2225 41.0208 80.7184 43.6043C80.5924 44.2974 80.5294 45.0536 80.5294 45.8097C80.5294 46.5659 80.5924 47.322 80.7184 48.0151C81.2225 50.5986 83.0499 52.678 85.4443 53.5602C87.0196 54.1273 88.6579 54.4424 90.4222 54.4424C92.6277 54.4424 94.7701 54.1273 96.7865 53.4342L95.7152 50.4096C94.329 50.7247 92.8797 50.9137 91.3674 50.9137C90.6113 50.9137 89.8551 50.7247 89.162 50.4726C88.2798 50.1575 87.5867 49.3384 87.3347 48.3302ZM111.972 51.6068C111.279 51.6698 110.523 51.7328 109.767 51.7328C108.885 51.7328 108.066 51.6068 107.309 51.2918C106.427 50.9767 105.797 50.0945 105.797 49.0863C105.797 47.9521 106.49 47.007 107.435 46.6289C108.003 46.3768 108.57 46.2508 109.2 46.1878C110.145 46.0618 111.027 45.9988 111.972 45.9988V51.6068ZM109.767 54.4424C112.791 54.4424 115.69 54.0013 118.463 53.2451V43.8564C118.463 43.2262 118.4 42.5961 118.274 42.029C117.832 39.9496 116.257 38.2483 114.178 37.6812C112.855 37.3031 111.405 37.1141 109.956 37.1141C107.057 37.1141 104.285 37.4291 101.638 38.1223L102.71 41.0838C104.537 40.5797 106.49 40.3277 108.507 40.3277C109.263 40.3277 109.956 40.3907 110.649 40.5167C111.342 40.6427 111.909 41.3359 111.909 42.092V43.5413C110.586 43.5413 109.263 43.6043 107.94 43.6673C106.553 43.7303 105.23 43.9824 103.97 44.3604C103.34 44.5495 102.71 44.8015 102.142 45.0536C100.63 45.7467 99.685 47.322 99.685 49.0233C99.685 50.8507 100.819 52.426 102.395 53.1191C103.655 53.6862 105.041 54.0643 106.553 54.1903C107.625 54.3794 108.696 54.4424 109.767 54.4424ZM118.526 66.7927V58.9162H99.622C99.1179 58.9162 98.6138 59.1683 98.3618 59.6093L93.8249 66.7927H118.526Z" fill="white"/>
<script xmlns=""/><link xmlns=""/></svg>