<svg width="370" height="370" viewBox="0 0 370 370" fill="none" xmlns="http://www.w3.org/2000/svg">
<path fill-rule="evenodd" clip-rule="evenodd" d="M66.1767 232.126C90.9402 314.34 196.57 348.936 266.76 284.444C267.777 283.51 269.358 283.577 270.292 284.594C271.226 285.611 271.16 287.192 270.143 288.126C197.153 355.19 87.1833 319.204 61.3892 233.568C48.511 190.812 58.1817 154.183 76.3978 126.835C93.0168 101.886 116.799 84.5814 137.167 77.3253L122.588 69.0146C121.389 68.3308 120.971 66.8041 121.654 65.6046C122.338 64.405 123.865 63.987 125.064 64.6708L144.611 75.8137C145.811 76.4975 146.229 78.0242 145.545 79.2237L134.402 98.7707C133.718 99.9702 132.192 100.388 130.992 99.7045C129.793 99.0207 129.375 97.494 130.058 96.2945L138.016 82.3359C118.927 89.3732 96.4056 105.818 80.5592 129.607C63.0738 155.858 53.7761 190.956 66.1767 232.126Z" fill="#181A1C"/>
</svg>
