<svg width="503" height="503" viewBox="0 0 503 503" fill="none" xmlns="http://www.w3.org/2000/svg">
<path fill-rule="evenodd" clip-rule="evenodd" d="M137.685 152.92C83.305 215.714 90.1255 310.702 152.919 365.082C215.713 419.462 310.701 412.642 365.081 349.848C419.462 287.054 412.641 192.066 349.847 137.686C287.054 83.3055 192.065 90.126 137.685 152.92ZM133.378 149.19C76.9384 214.362 84.0172 312.949 149.19 369.389C214.362 425.829 312.948 418.75 369.388 353.578C425.828 288.405 418.749 189.819 353.577 133.379C288.405 76.9389 189.819 84.0177 133.378 149.19Z" fill="#181A1C"/>
<path fill-rule="evenodd" clip-rule="evenodd" d="M133.656 133.841C68.7396 198.859 68.822 304.192 133.84 369.109C198.859 434.026 304.192 433.943 369.109 368.925C434.026 303.906 433.943 198.573 368.925 133.656C303.906 68.7397 198.573 68.8222 133.656 133.841ZM125.593 125.79C56.2299 195.261 56.3179 307.809 125.79 377.172C195.261 446.535 307.809 446.447 377.172 376.976C446.535 307.504 446.447 194.956 376.976 125.593C307.504 56.23 194.956 56.318 125.593 125.79Z" fill="#181A1C"/>
<path d="M253.48 55.0073C253.16 55.0075 252.912 54.9197 252.736 54.7438C252.576 54.5519 252.496 54.2959 252.496 53.9759L252.486 38.9999C252.486 38.6479 252.574 38.3839 252.75 38.2078C252.942 38.0156 253.214 37.9195 253.566 37.9193L265.374 37.912C265.71 37.9118 265.974 38.0076 266.166 38.1995C266.358 38.3754 266.454 38.6393 266.454 38.9913L266.464 53.9673C266.464 54.2873 266.376 54.5434 266.2 54.7355C266.024 54.9116 265.784 54.9997 265.48 54.9999C265.16 55.0001 264.912 54.9123 264.736 54.7364C264.56 54.5445 264.472 54.2886 264.472 53.9686L264.463 39.6166L254.455 39.6227L254.464 53.9747C254.464 54.2947 254.384 54.5508 254.224 54.7429C254.064 54.919 253.816 55.0071 253.48 55.0073Z" fill="#181A1C"/>
<path d="M282.237 57.3657C280.68 57.1846 279.361 56.677 278.283 55.8428C277.221 54.9946 276.448 53.8898 275.962 52.5286C275.492 51.1692 275.359 49.6075 275.564 47.8433C275.719 46.5083 276.033 45.3367 276.504 44.3284C276.994 43.3061 277.615 42.4682 278.367 41.8147C279.121 41.1453 279.991 40.6665 280.974 40.3782C281.976 40.0758 283.065 39.993 284.241 40.1298C285.83 40.3145 287.156 40.8231 288.219 41.6554C289.298 42.4896 290.073 43.5864 290.543 44.9457C291.031 46.2911 291.172 47.8458 290.967 49.6099C290.812 50.9449 290.49 52.1236 290 53.1459C289.511 54.1683 288.889 55.0141 288.135 55.6835C287.381 56.3529 286.503 56.8387 285.501 57.1411C284.517 57.4294 283.429 57.5042 282.237 57.3657ZM282.439 55.6254C283.647 55.7658 284.696 55.6139 285.585 55.1696C286.49 54.7272 287.225 54.0153 287.791 53.034C288.356 52.0527 288.722 50.8389 288.89 49.3926C289.144 47.2153 288.847 45.4734 288 44.1669C287.171 42.8463 285.85 42.0807 284.039 41.87C282.863 41.7333 281.822 41.8861 280.917 42.3286C280.028 42.7729 279.3 43.4857 278.735 44.467C278.172 45.4324 277.806 46.6382 277.638 48.0845C277.387 50.2459 277.683 51.9958 278.526 53.3341C279.371 54.6565 280.675 55.4203 282.439 55.6254Z" fill="#181A1C"/>
<path d="M295.913 64.0958C295.632 64.0295 295.433 63.9001 295.314 63.7076C295.211 63.5188 295.194 63.2765 295.264 62.9806L296.108 59.4071C296.259 58.7687 296.654 58.5249 297.292 58.6758L298.811 59.0346L297.589 59.0911C298.727 58.308 299.725 57.0804 300.58 55.4084C301.439 53.7208 302.191 51.5145 302.835 48.7896L303.591 45.5898C303.672 45.2472 303.819 45.0105 304.03 44.8797C304.261 44.737 304.548 44.7062 304.891 44.7871L313.719 46.8739C314.046 46.9511 314.281 47.1053 314.424 47.3363C314.57 47.5518 314.603 47.8308 314.522 48.1733L311.077 62.7478L310.489 61.7948L312.614 62.2972C312.926 62.3708 313.147 62.5135 313.278 62.7252C313.412 62.9214 313.442 63.1752 313.369 63.4867L312.524 67.0602C312.381 67.6675 312.021 67.903 311.445 67.7668C311.149 67.6969 310.941 67.5657 310.823 67.3732C310.719 67.1844 310.703 66.942 310.772 66.6462L311.463 63.7266L297.682 60.4696L296.992 63.3891C296.849 63.9964 296.489 64.2319 295.913 64.0958ZM299.955 59.3051L309.321 61.5188L312.451 48.2757L305.257 46.5754L304.6 49.3548C304.008 51.8617 303.334 53.9137 302.578 55.5107C301.838 57.1114 300.964 58.3762 299.955 59.3051Z" fill="#181A1C"/>
<path d="M320.209 67.629C319.908 67.5197 319.705 67.3523 319.6 67.1268C319.515 66.8917 319.527 66.6238 319.637 66.323L324.775 52.1794C324.889 51.8635 325.057 51.6605 325.277 51.5702C325.502 51.4649 325.766 51.4668 326.066 51.5761L331.412 53.5182C333.112 54.1356 334.267 55.0319 334.879 56.2073C335.495 57.3677 335.528 58.7073 334.976 60.2262C334.43 61.73 333.545 62.7364 332.322 63.2453C331.099 63.7542 329.637 63.7 327.938 63.0827L323.494 61.4683L321.486 66.995C321.377 67.2957 321.215 67.509 320.999 67.6349C320.788 67.7457 320.525 67.7437 320.209 67.629ZM324.06 59.9119L328.278 61.4443C329.496 61.8868 330.512 61.9493 331.325 61.6319C332.159 61.305 332.767 60.6151 333.149 59.5624C333.537 58.4947 333.513 57.5754 333.079 56.8046C332.664 56.0242 331.848 55.4127 330.63 54.9702L326.411 53.4378L324.06 59.9119Z" fill="#181A1C"/>
<path d="M346.426 79.6807C345.024 78.9779 343.959 78.05 343.231 76.8972C342.523 75.7372 342.174 74.4345 342.183 72.9891C342.206 71.5509 342.616 70.038 343.412 68.4504C344.014 67.249 344.71 66.2552 345.498 65.469C346.307 64.6757 347.177 64.1007 348.108 63.744C349.046 63.373 350.026 63.2203 351.049 63.2859C352.094 63.3443 353.145 63.6389 354.204 64.1696C355.634 64.8868 356.706 65.8183 357.42 66.964C358.149 68.1168 358.502 69.4124 358.479 70.8506C358.477 72.2817 358.078 73.791 357.282 75.3786C356.679 76.58 355.974 77.5774 355.164 78.3707C354.355 79.164 353.481 79.7462 352.543 80.1172C351.605 80.4881 350.614 80.6444 349.57 80.586C348.546 80.5204 347.498 80.2186 346.426 79.6807ZM347.211 78.1146C348.298 78.6597 349.335 78.8755 350.323 78.7622C351.325 78.656 352.259 78.2385 353.126 77.5097C353.992 76.7808 354.752 75.7656 355.405 74.4641C356.387 72.5047 356.704 70.7663 356.355 69.2489C356.028 67.7244 355.049 66.5534 353.418 65.7358C352.36 65.205 351.33 64.9928 350.328 65.0989C349.34 65.2123 348.413 65.6334 347.547 66.3622C346.687 67.0768 345.931 68.0848 345.278 69.3863C344.303 71.3315 343.983 73.077 344.317 74.623C344.659 76.1546 345.624 77.3185 347.211 78.1146Z" fill="#181A1C"/>
<path d="M360.7 88.4206C360.405 88.2274 360.226 88.0045 360.162 87.752C360.121 87.4949 360.196 87.2192 360.39 86.925L368.493 74.5882C368.686 74.294 368.905 74.1217 369.148 74.0712C369.414 74.0161 369.694 74.0852 369.989 74.2785L377.752 79.3775C377.979 79.5269 378.113 79.7012 378.155 79.9006C378.209 80.1088 378.166 80.3199 378.026 80.5339C377.877 80.7612 377.695 80.8912 377.483 80.9237C377.283 80.965 377.07 80.911 376.843 80.7617L369.781 76.1237L366.593 80.9782L370.886 83.7979C372.37 84.7729 373.305 85.8559 373.69 87.047C374.076 88.2381 373.838 89.489 372.977 90.7996C372.125 92.0968 371.067 92.8185 369.803 92.9647C368.549 93.0975 367.179 92.6764 365.694 91.7014L360.7 88.4206ZM362.311 87.4977L366.443 90.2119C367.513 90.9146 368.451 91.2344 369.259 91.1711C370.075 91.0946 370.773 90.6149 371.352 89.7323C371.923 88.8631 372.077 88.0455 371.815 87.2795C371.552 86.5136 370.886 85.7793 369.816 85.0766L365.684 82.3623L362.311 87.4977Z" fill="#181A1C"/>
<path d="M378.597 102.313C378.352 102.107 378.219 101.881 378.197 101.633C378.197 101.383 378.301 101.135 378.506 100.89L388.264 89.246C388.48 88.9885 388.706 88.8437 388.941 88.8116C389.189 88.7897 389.436 88.8816 389.681 89.0871C389.926 89.2927 390.054 89.5143 390.063 89.7519C390.085 89.9999 389.988 90.2526 389.772 90.5101L385.518 95.587L393.299 102.108L397.553 97.0309C397.769 96.7734 397.995 96.6286 398.231 96.5965C398.479 96.5746 398.725 96.6665 398.97 96.872C399.216 97.0775 399.343 97.2991 399.353 97.5368C399.375 97.7847 399.278 98.0375 399.062 98.295L389.304 109.939C389.098 110.184 388.866 110.324 388.608 110.358C388.372 110.39 388.132 110.303 387.887 110.098C387.641 109.892 387.508 109.665 387.486 109.417C387.487 109.168 387.59 108.92 387.795 108.675L392.204 103.414L384.423 96.893L380.014 102.154C379.809 102.399 379.583 102.544 379.337 102.588C379.101 102.62 378.855 102.529 378.597 102.313Z" fill="#181A1C"/>
<path d="M395.131 118.076C394.889 117.82 394.766 117.562 394.762 117.302C394.781 117.042 394.918 116.791 395.174 116.55L405.904 106.414C406.16 106.172 406.412 106.055 406.661 106.062C406.932 106.07 407.189 106.202 407.431 106.457L413.561 112.948C413.748 113.145 413.839 113.346 413.833 113.55C413.827 113.753 413.731 113.943 413.545 114.119C413.347 114.305 413.147 114.396 412.943 114.39C412.739 114.384 412.544 114.283 412.358 114.085L406.804 108.205L402.547 112.227L407.754 117.74C407.941 117.937 408.032 118.138 408.026 118.342C408.032 118.534 407.936 118.724 407.738 118.911C407.54 119.097 407.34 119.188 407.136 119.182C406.933 119.176 406.737 119.075 406.551 118.877L401.343 113.364L396.911 117.55L402.465 123.429C402.652 123.627 402.742 123.828 402.737 124.031C402.731 124.235 402.635 124.424 402.449 124.6C402.251 124.787 402.05 124.878 401.847 124.872C401.643 124.866 401.448 124.764 401.261 124.566L395.131 118.076Z" fill="#181A1C"/>
<path d="M409.534 135.698C409.324 135.416 409.232 135.145 409.258 134.886C409.307 134.631 409.473 134.397 409.755 134.187L421.589 125.366C421.871 125.155 422.135 125.068 422.381 125.104C422.65 125.143 422.89 125.304 423.1 125.586L428.436 132.744C428.598 132.962 428.665 133.172 428.636 133.374C428.606 133.575 428.489 133.752 428.284 133.905C428.066 134.068 427.856 134.134 427.654 134.105C427.453 134.076 427.271 133.952 427.108 133.734L422.274 127.249L417.579 130.749L422.112 136.83C422.274 137.048 422.341 137.258 422.312 137.459C422.295 137.651 422.178 137.828 421.96 137.991C421.742 138.153 421.532 138.22 421.33 138.191C421.129 138.161 420.947 138.037 420.784 137.819L416.252 131.739L411.364 135.382L416.198 141.867C416.36 142.085 416.427 142.295 416.398 142.496C416.368 142.698 416.251 142.875 416.046 143.028C415.828 143.19 415.618 143.257 415.416 143.228C415.215 143.198 415.033 143.075 414.87 142.856L409.534 135.698Z" fill="#181A1C"/>
<path d="M433.938 180.958C433.316 179.519 433.096 178.123 433.279 176.772C433.483 175.429 434.053 174.206 434.989 173.105C435.931 172.018 437.217 171.122 438.848 170.418C440.081 169.885 441.253 169.57 442.362 169.475C443.492 169.387 444.528 169.506 445.47 169.831C446.427 170.15 447.276 170.663 448.018 171.371C448.781 172.087 449.397 172.989 449.866 174.076C450.501 175.544 450.724 176.947 450.534 178.284C450.351 179.635 449.789 180.854 448.847 181.941C447.925 183.036 446.65 183.936 445.019 184.641C443.786 185.174 442.604 185.484 441.474 185.571C440.344 185.659 439.3 185.543 438.343 185.225C437.386 184.906 436.527 184.389 435.764 183.672C435.022 182.964 434.414 182.06 433.938 180.958ZM435.546 180.263C436.028 181.379 436.684 182.212 437.513 182.76C438.349 183.322 439.333 183.603 440.466 183.602C441.598 183.6 442.833 183.311 444.169 182.733C446.181 181.864 447.541 180.736 448.25 179.349C448.979 177.971 448.981 176.445 448.258 174.77C447.788 173.684 447.136 172.859 446.3 172.296C445.471 171.748 444.49 171.475 443.357 171.476C442.24 171.471 441.012 171.757 439.676 172.335C437.678 173.198 436.311 174.329 435.573 175.728C434.851 177.121 434.841 178.633 435.546 180.263Z" fill="#181A1C"/>
<path d="M444.035 218.975C443.979 218.66 444.022 218.4 444.165 218.197C444.326 218.006 444.564 217.882 444.88 217.826L459.839 215.179C460.17 215.121 460.436 215.155 460.637 215.282C460.841 215.424 460.971 215.653 461.027 215.968C461.083 216.283 461.038 216.535 460.892 216.723C460.75 216.927 460.513 217.058 460.182 217.117L453.659 218.271L455.428 228.268L461.951 227.114C462.282 227.055 462.548 227.089 462.749 227.216C462.953 227.359 463.083 227.588 463.139 227.903C463.195 228.218 463.15 228.47 463.004 228.658C462.862 228.862 462.625 228.993 462.294 229.052L447.334 231.699C447.019 231.755 446.752 231.713 446.532 231.573C446.331 231.446 446.203 231.225 446.147 230.91C446.091 230.595 446.134 230.335 446.277 230.131C446.438 229.94 446.676 229.817 446.992 229.761L453.751 228.565L451.981 218.568L445.222 219.764C444.907 219.82 444.641 219.786 444.424 219.662C444.223 219.535 444.093 219.306 444.035 218.975Z" fill="#181A1C"/>
<path d="M446.316 240.251C446.301 239.995 446.344 239.784 446.447 239.618C446.566 239.467 446.72 239.369 446.91 239.326C447.117 239.298 447.351 239.332 447.614 239.429L462.999 245.135C463.327 245.26 463.561 245.414 463.7 245.599C463.856 245.798 463.941 246.017 463.955 246.257C463.969 246.496 463.91 246.716 463.777 246.916C463.662 247.131 463.448 247.312 463.136 247.459L448.527 254.954C448.279 255.097 448.051 255.159 447.841 255.139C447.632 255.135 447.468 255.065 447.348 254.928C447.227 254.79 447.16 254.594 447.145 254.338C447.128 254.051 447.186 253.815 447.319 253.631C447.469 253.446 447.684 253.289 447.965 253.16L451.957 251.146L451.511 252.134L450.904 241.832L451.465 242.785L447.265 241.277C446.954 241.151 446.721 241.012 446.568 240.861C446.415 240.71 446.331 240.506 446.316 240.251ZM461.486 246.378L452.178 243.055L452.6 242.453L453.122 251.318L452.635 250.818L461.489 246.426L461.486 246.378Z" fill="#181A1C"/>
<path d="M445.7 270.654C445.796 268.992 446.229 267.591 447 266.449C447.771 265.308 448.822 264.455 450.152 263.89C451.482 263.342 453.041 263.119 454.83 263.222C456.172 263.3 457.36 263.545 458.394 263.957C459.443 264.386 460.316 264.957 461.012 265.67C461.723 266.4 462.25 267.272 462.592 268.285C462.95 269.3 463.094 270.422 463.023 271.652C462.966 272.642 462.768 273.576 462.429 274.454C462.106 275.333 461.654 276.084 461.073 276.708C460.901 276.906 460.71 277.032 460.498 277.084C460.302 277.152 460.11 277.149 459.922 277.074C459.749 277.016 459.603 276.912 459.483 276.761C459.379 276.626 459.332 276.463 459.343 276.272C459.354 276.08 459.447 275.869 459.62 275.639C460.116 275.09 460.496 274.479 460.759 273.805C461.023 273.131 461.177 272.395 461.223 271.596C461.296 270.334 461.086 269.248 460.594 268.339C460.117 267.43 459.381 266.722 458.384 266.216C457.388 265.71 456.163 265.415 454.709 265.331C453.255 265.247 451.997 265.399 450.932 265.786C449.884 266.175 449.064 266.793 448.47 267.64C447.892 268.488 447.567 269.543 447.494 270.805C447.449 271.588 447.518 272.337 447.701 273.053C447.9 273.769 448.214 274.436 448.644 275.054C448.789 275.303 448.849 275.523 448.822 275.714C448.811 275.905 448.746 276.062 448.627 276.183C448.507 276.304 448.359 276.384 448.18 276.422C448.001 276.476 447.817 276.465 447.629 276.39C447.44 276.331 447.279 276.202 447.147 276.002C446.61 275.298 446.216 274.482 445.965 273.554C445.729 272.643 445.641 271.676 445.7 270.654Z" fill="#181A1C"/>
<path d="M439.353 320.861C439.811 319.328 440.637 318.239 441.832 317.594C443.087 316.967 444.451 316.873 445.923 317.313C447.395 317.753 448.453 318.57 449.098 319.764C449.805 320.977 449.929 322.35 449.471 323.883C449.013 325.416 448.165 326.466 446.928 327.031C445.733 327.676 444.4 327.779 442.928 327.339C441.456 326.9 440.367 326.073 439.661 324.86C438.998 323.727 438.895 322.394 439.353 320.861Z" fill="#181A1C"/>
<path d="M419.175 350.406C419.335 350.129 419.535 349.958 419.775 349.894C420.021 349.851 420.283 349.91 420.56 350.069L433.535 357.549C433.84 357.725 434.024 357.933 434.089 358.174C434.159 358.436 434.107 358.72 433.931 359.025L428.033 369.254C427.865 369.545 427.65 369.726 427.388 369.796C427.14 369.875 426.863 369.826 426.558 369.65L413.584 362.17C413.307 362.011 413.129 361.806 413.05 361.558C412.986 361.318 413.029 361.066 413.181 360.802C413.341 360.525 413.541 360.354 413.782 360.29C414.036 360.233 414.302 360.285 414.579 360.445L427.012 367.613L432.011 358.943L419.577 351.774C419.3 351.615 419.118 351.417 419.032 351.183C418.959 350.956 419.007 350.698 419.175 350.406Z" fill="#181A1C"/>
<path d="M402.754 374.132C403.69 372.873 404.788 371.985 406.05 371.468C407.315 370.973 408.659 370.856 410.081 371.115C411.493 371.388 412.912 372.054 414.337 373.114C415.416 373.916 416.274 374.773 416.911 375.685C417.552 376.62 417.967 377.577 418.157 378.555C418.359 379.543 418.339 380.536 418.097 381.532C417.858 382.55 417.385 383.535 416.679 384.485C415.724 385.769 414.621 386.663 413.368 387.167C412.106 387.685 410.769 387.807 409.357 387.535C407.948 387.284 406.531 386.63 405.106 385.57C404.027 384.768 403.167 383.899 402.527 382.965C401.886 382.03 401.464 381.068 401.262 380.08C401.059 379.092 401.078 378.089 401.317 377.07C401.559 376.074 402.038 375.094 402.754 374.132ZM404.16 375.177C403.434 376.153 403.042 377.137 402.982 378.129C402.912 379.134 403.161 380.127 403.729 381.107C404.296 382.087 405.164 383.011 406.332 383.88C408.091 385.188 409.748 385.802 411.303 385.722C412.861 385.664 414.184 384.903 415.273 383.439C415.979 382.489 416.367 381.512 416.437 380.507C416.496 379.514 416.243 378.528 415.675 377.548C415.121 376.578 414.26 375.658 413.091 374.789C411.345 373.491 409.682 372.872 408.101 372.933C406.533 373.004 405.22 373.752 404.16 375.177Z" fill="#181A1C"/>
<path d="M390.088 382.609C390.285 382.4 390.497 382.292 390.723 382.285C390.938 382.29 391.157 382.397 391.378 382.605L394.05 385.123C394.528 385.573 394.541 386.037 394.092 386.514L393.022 387.65L393.584 386.563C393.693 387.941 394.257 389.418 395.277 390.995C396.309 392.583 397.844 394.337 399.882 396.257L402.275 398.512C402.531 398.754 402.663 398.999 402.67 399.248C402.678 399.519 402.562 399.783 402.32 400.039L396.099 406.642C395.868 406.886 395.617 407.012 395.346 407.02C395.086 407.04 394.828 406.928 394.572 406.687L383.673 396.416L384.792 396.383L383.294 397.973C383.075 398.206 382.841 398.326 382.592 398.333C382.355 398.352 382.12 398.251 381.887 398.032L379.215 395.513C378.76 395.085 378.736 394.656 379.142 394.225C379.351 394.004 379.568 393.89 379.794 393.883C380.01 393.888 380.228 393.995 380.449 394.203L382.632 396.261L392.343 385.955L390.16 383.898C389.706 383.47 389.682 383.04 390.088 382.609ZM392.215 388.506L385.615 395.51L395.519 404.842L400.588 399.462L398.51 397.504C396.635 395.737 395.195 394.127 394.19 392.674C393.174 391.233 392.515 389.844 392.215 388.506Z" fill="#181A1C"/>
<path d="M374.879 401.885C375.124 401.679 375.37 401.587 375.618 401.608C375.864 401.652 376.09 401.797 376.296 402.042L385.975 413.563C386.192 413.821 386.284 414.067 386.252 414.303C386.23 414.551 386.097 414.778 385.852 414.984L381.497 418.642C380.113 419.805 378.759 420.358 377.435 420.3C376.122 420.254 374.945 419.612 373.906 418.375C372.877 417.15 372.448 415.88 372.619 414.566C372.789 413.253 373.567 412.014 374.951 410.851L378.571 407.81L374.789 403.308C374.583 403.063 374.48 402.815 374.479 402.565C374.488 402.328 374.621 402.101 374.879 401.885ZM379.637 409.078L376.2 411.965C375.208 412.798 374.646 413.647 374.514 414.51C374.381 415.395 374.674 416.267 375.394 417.124C376.125 417.994 376.933 418.433 377.818 418.442C378.701 418.473 379.639 418.072 380.631 417.239L384.067 414.352L379.637 409.078Z" fill="#181A1C"/>
<path d="M351.334 418.563C352.644 417.7 353.98 417.242 355.342 417.187C356.7 417.155 358.003 417.504 359.25 418.234C360.484 418.974 361.59 420.085 362.567 421.568C363.306 422.69 363.819 423.789 364.106 424.865C364.388 425.963 364.451 427.004 364.295 427.988C364.147 428.986 363.789 429.911 363.221 430.764C362.648 431.64 361.867 432.403 360.878 433.054C359.542 433.934 358.199 434.397 356.85 434.443C355.487 434.497 354.189 434.155 352.955 433.416C351.716 432.699 350.609 431.599 349.632 430.116C348.892 428.993 348.382 427.883 348.099 426.785C347.817 425.688 347.75 424.64 347.897 423.642C348.045 422.645 348.405 421.708 348.978 420.833C349.547 419.979 350.332 419.223 351.334 418.563ZM352.298 420.026C351.282 420.695 350.577 421.485 350.181 422.397C349.772 423.318 349.666 424.336 349.864 425.451C350.062 426.566 350.561 427.731 351.362 428.947C352.568 430.778 353.915 431.921 355.403 432.378C356.887 432.857 358.391 432.594 359.914 431.591C360.903 430.94 361.602 430.154 362.011 429.233C362.407 428.321 362.506 427.308 362.308 426.193C362.119 425.091 361.624 423.932 360.823 422.716C359.626 420.899 358.275 419.749 356.768 419.266C355.271 418.796 353.781 419.049 352.298 420.026Z" fill="#181A1C"/>
<path d="M336.629 426.555C336.943 426.397 337.226 426.353 337.476 426.424C337.72 426.516 337.921 426.72 338.079 427.034L344.711 440.22C344.869 440.535 344.909 440.81 344.831 441.046C344.746 441.304 344.546 441.512 344.232 441.67L335.934 445.844C335.691 445.966 335.473 445.995 335.28 445.931C335.072 445.875 334.911 445.732 334.796 445.503C334.673 445.26 334.651 445.038 334.73 444.838C334.794 444.645 334.947 444.487 335.19 444.365L342.737 440.568L340.127 435.38L335.539 437.688C333.952 438.486 332.547 438.754 331.323 438.492C330.099 438.23 329.134 437.399 328.43 435.998C327.732 434.612 327.636 433.335 328.141 432.167C328.654 431.014 329.703 430.038 331.29 429.24L336.629 426.555ZM336.622 428.412L332.206 430.633C331.062 431.208 330.316 431.861 329.967 432.592C329.625 433.337 329.692 434.181 330.166 435.125C330.634 436.054 331.265 436.596 332.059 436.751C332.854 436.907 333.823 436.697 334.966 436.122L339.383 433.9L336.622 428.412Z" fill="#181A1C"/>
<path d="M315.649 435.109C315.949 434.999 316.212 434.997 316.438 435.102C316.654 435.227 316.817 435.44 316.927 435.741L322.131 450.014C322.246 450.329 322.259 450.597 322.169 450.817C322.064 451.043 321.861 451.211 321.56 451.32C321.26 451.43 321.004 451.429 320.794 451.319C320.568 451.214 320.398 451.004 320.282 450.688L318.013 444.465L308.475 447.943L310.745 454.166C310.86 454.482 310.872 454.749 310.782 454.97C310.677 455.195 310.475 455.363 310.174 455.473C309.873 455.582 309.618 455.582 309.407 455.471C309.181 455.366 309.011 455.156 308.896 454.84L303.691 440.568C303.581 440.267 303.576 439.996 303.676 439.756C303.766 439.535 303.961 439.37 304.262 439.261C304.563 439.151 304.826 439.149 305.051 439.254C305.268 439.38 305.43 439.593 305.54 439.893L307.892 446.342L317.429 442.864L315.078 436.415C314.968 436.115 314.955 435.847 315.04 435.611C315.13 435.391 315.333 435.224 315.649 435.109Z" fill="#181A1C"/>
<path d="M293.73 441.545C294.072 441.464 294.357 441.487 294.585 441.613C294.8 441.76 294.949 442.004 295.03 442.346L298.443 456.706C298.524 457.049 298.5 457.326 298.369 457.538C298.227 457.769 297.984 457.925 297.642 458.007L288.956 460.071C288.691 460.134 288.472 460.112 288.299 460.005C288.125 459.898 288.009 459.72 287.95 459.471C287.887 459.207 287.909 458.988 288.016 458.814C288.123 458.641 288.308 458.523 288.573 458.46L296.442 456.59L295.088 450.893L287.709 452.646C287.445 452.709 287.226 452.687 287.052 452.58C286.883 452.489 286.766 452.311 286.703 452.046C286.64 451.782 286.662 451.563 286.769 451.389C286.876 451.216 287.062 451.098 287.326 451.035L294.705 449.281L293.295 443.351L285.427 445.221C285.162 445.284 284.943 445.262 284.77 445.155C284.596 445.048 284.48 444.87 284.421 444.621C284.358 444.356 284.38 444.137 284.487 443.964C284.593 443.791 284.779 443.672 285.044 443.61L293.73 441.545Z" fill="#181A1C"/>
<path d="M271.266 445.208C271.616 445.167 271.896 445.223 272.108 445.375C272.305 445.545 272.424 445.805 272.465 446.155L274.188 460.814C274.229 461.163 274.172 461.436 274.018 461.631C273.85 461.844 273.591 461.971 273.241 462.013L264.374 463.054C264.104 463.086 263.889 463.039 263.729 462.913C263.569 462.787 263.474 462.596 263.445 462.342C263.413 462.072 263.46 461.857 263.586 461.697C263.713 461.537 263.911 461.442 264.181 461.41L272.214 460.466L271.53 454.65L263.998 455.535C263.728 455.567 263.513 455.519 263.353 455.393C263.195 455.283 263.1 455.093 263.068 454.823C263.037 454.552 263.084 454.337 263.21 454.178C263.336 454.018 263.535 453.922 263.805 453.89L271.337 453.005L270.625 446.951L262.593 447.895C262.323 447.926 262.108 447.879 261.948 447.753C261.788 447.627 261.693 447.437 261.663 447.182C261.632 446.912 261.679 446.697 261.805 446.537C261.931 446.378 262.129 446.282 262.399 446.25L271.266 445.208Z" fill="#181A1C"/>
<path d="M219.869 443.712C221.427 443.893 222.745 444.401 223.824 445.235C224.885 446.083 225.659 447.188 226.145 448.549C226.615 449.909 226.747 451.47 226.542 453.235C226.387 454.57 226.074 455.741 225.602 456.749C225.113 457.772 224.492 458.61 223.739 459.263C222.985 459.933 222.116 460.411 221.132 460.7C220.13 461.002 219.042 461.085 217.865 460.948C216.276 460.763 214.95 460.255 213.887 459.422C212.808 458.588 212.034 457.492 211.563 456.132C211.076 454.787 210.934 453.232 211.139 451.468C211.294 450.133 211.617 448.954 212.106 447.932C212.595 446.91 213.217 446.064 213.972 445.394C214.726 444.725 215.604 444.239 216.606 443.937C217.589 443.649 218.677 443.574 219.869 443.712ZM219.667 445.452C218.459 445.312 217.411 445.464 216.521 445.908C215.616 446.351 214.881 447.063 214.316 448.044C213.751 449.025 213.384 450.239 213.216 451.685C212.963 453.863 213.26 455.604 214.107 456.911C214.936 458.232 216.256 458.997 218.068 459.208C219.244 459.345 220.284 459.192 221.19 458.749C222.079 458.305 222.806 457.592 223.371 456.611C223.934 455.646 224.3 454.44 224.468 452.993C224.72 450.832 224.424 449.082 223.581 447.744C222.736 446.421 221.431 445.658 219.667 445.452Z" fill="#181A1C"/>
<path d="M181.897 433.448C182.198 433.558 182.401 433.725 182.506 433.951C182.591 434.186 182.579 434.454 182.469 434.754L177.282 449.033C177.168 449.349 177.005 449.563 176.794 449.673C176.569 449.779 176.306 449.777 176.005 449.667C175.704 449.558 175.509 449.394 175.418 449.173C175.313 448.948 175.318 448.677 175.433 448.361L177.694 442.136L168.152 438.669L165.891 444.895C165.776 445.211 165.613 445.424 165.403 445.535C165.177 445.64 164.914 445.638 164.613 445.529C164.313 445.42 164.117 445.255 164.027 445.035C163.922 444.81 163.926 444.539 164.041 444.223L169.228 429.944C169.337 429.643 169.508 429.433 169.739 429.312C169.949 429.202 170.205 429.201 170.505 429.31C170.806 429.419 171.009 429.587 171.115 429.812C171.199 430.047 171.187 430.315 171.078 430.616L168.734 437.068L178.276 440.534L180.62 434.082C180.729 433.782 180.892 433.568 181.108 433.443C181.318 433.332 181.581 433.334 181.897 433.448Z" fill="#181A1C"/>
<path d="M162.331 424.786C162.56 424.9 162.721 425.044 162.814 425.216C162.885 425.395 162.892 425.577 162.835 425.763C162.756 425.956 162.609 426.142 162.394 426.321L149.76 436.792C149.488 437.014 149.237 437.139 149.008 437.167C148.758 437.202 148.525 437.166 148.311 437.059C148.096 436.951 147.935 436.79 147.828 436.575C147.7 436.368 147.65 436.092 147.679 435.749L148.492 419.349C148.492 419.063 148.553 418.834 148.675 418.663C148.783 418.484 148.926 418.377 149.105 418.341C149.284 418.306 149.488 418.345 149.717 418.46C149.974 418.589 150.149 418.757 150.242 418.965C150.328 419.187 150.356 419.452 150.327 419.759L150.075 424.224L149.443 423.343L158.668 427.969L157.562 427.979L160.968 425.095C161.233 424.888 161.469 424.756 161.677 424.699C161.884 424.642 162.103 424.671 162.331 424.786ZM149.44 434.86L156.971 428.461L157.282 429.127L149.344 425.146L150.02 424.975L149.397 434.838L149.44 434.86Z" fill="#181A1C"/>
<path d="M136.31 409.051C137.7 409.965 138.697 411.041 139.3 412.279C139.904 413.517 140.117 414.854 139.94 416.289C139.75 417.714 139.164 419.176 138.18 420.674C137.442 421.797 136.636 422.704 135.762 423.393C134.866 424.087 133.935 424.557 132.969 424.803C131.981 425.054 130.963 425.074 129.914 424.864C128.857 424.667 127.813 424.231 126.783 423.554C125.954 423.01 125.244 422.371 124.654 421.638C124.054 420.919 123.629 420.152 123.38 419.337C123.294 419.089 123.281 418.861 123.342 418.652C123.38 418.448 123.479 418.283 123.638 418.157C123.775 418.037 123.938 417.962 124.129 417.934C124.297 417.911 124.462 417.952 124.622 418.057C124.783 418.163 124.919 418.348 125.032 418.614C125.259 419.318 125.598 419.952 126.05 420.517C126.502 421.082 127.063 421.584 127.731 422.023C128.788 422.717 129.833 423.079 130.867 423.107C131.893 423.149 132.874 422.865 133.811 422.255C134.747 421.645 135.615 420.731 136.414 419.514C137.214 418.297 137.712 417.131 137.908 416.016C138.096 414.914 137.971 413.895 137.534 412.957C137.089 412.032 136.338 411.223 135.281 410.529C134.626 410.099 133.943 409.784 133.231 409.585C132.511 409.399 131.776 409.337 131.027 409.4C130.738 409.402 130.518 409.344 130.366 409.225C130.206 409.119 130.103 408.985 130.058 408.821C130.012 408.657 130.018 408.488 130.074 408.315C130.117 408.133 130.218 407.979 130.377 407.854C130.523 407.719 130.715 407.645 130.955 407.63C131.833 407.517 132.736 407.584 133.665 407.831C134.572 408.082 135.454 408.489 136.31 409.051Z" fill="#181A1C"/>
<path d="M103.262 382.244C104.361 383.407 104.891 384.667 104.853 386.024C104.767 387.425 104.166 388.653 103.05 389.708C101.933 390.763 100.696 391.271 99.3393 391.232C97.9357 391.237 96.6845 390.658 95.5858 389.495C94.4871 388.332 94.0023 387.073 94.1315 385.719C94.1701 384.362 94.7477 383.156 95.8643 382.101C96.9809 381.046 98.241 380.516 99.6447 380.511C100.958 380.503 102.164 381.081 103.262 382.244Z" fill="#181A1C"/>
<path d="M80.5044 346.203C80.6645 346.48 80.7125 346.739 80.6482 346.979C80.5621 347.214 80.3805 347.411 80.1035 347.571L67.1385 355.067C66.8337 355.244 66.5611 355.299 66.3207 355.235C66.0584 355.165 65.8391 354.978 65.6629 354.673L59.7526 344.451C59.5845 344.16 59.5354 343.883 59.6055 343.621C59.6618 343.366 59.8423 343.151 60.147 342.975L73.112 335.479C73.389 335.319 73.6547 335.267 73.909 335.323C74.1495 335.387 74.3458 335.551 74.498 335.814C74.6581 336.091 74.7061 336.35 74.6418 336.591C74.5637 336.839 74.3861 337.043 74.1091 337.204L61.6843 344.387L66.6936 353.051L79.1184 345.868C79.3954 345.707 79.6571 345.649 79.9034 345.691C80.1359 345.741 80.3362 345.912 80.5044 346.203Z" fill="#181A1C"/>
<path d="M68.1684 320.12C68.7903 321.559 69.0098 322.954 68.8268 324.306C68.6228 325.649 68.0529 326.871 67.1171 327.973C66.1749 329.06 64.8886 329.955 63.2583 330.66C62.0246 331.193 60.8532 331.507 59.7442 331.603C58.6141 331.69 57.578 331.572 56.6359 331.247C55.679 330.928 54.8298 330.415 54.0881 329.707C53.3255 328.991 52.7094 328.089 52.2397 327.002C51.6051 325.533 51.3824 324.131 51.5718 322.794C51.7547 321.442 52.3173 320.223 53.2595 319.136C54.1806 318.041 55.4564 317.141 57.0867 316.437C58.3205 315.904 59.5024 315.594 60.6324 315.506C61.7624 315.419 62.8059 315.534 63.7627 315.853C64.7196 316.172 65.5793 316.689 66.342 317.405C67.0836 318.113 67.6924 319.018 68.1684 320.12ZM66.5601 320.814C66.0778 319.698 65.4219 318.866 64.5925 318.318C63.7568 317.755 62.7727 317.475 61.6404 317.476C60.508 317.477 59.2735 317.767 57.9369 318.344C55.9247 319.214 54.5646 320.342 53.8565 321.728C53.1274 323.106 53.1245 324.633 53.848 326.307C54.3176 327.394 54.9703 328.219 55.8061 328.781C56.6354 329.329 57.6163 329.603 58.7487 329.602C59.8664 329.607 61.0935 329.32 62.4301 328.743C64.4276 327.88 65.7951 326.749 66.5326 325.349C67.2554 323.956 67.2645 322.445 66.5601 320.814Z" fill="#181A1C"/>
<path d="M67.1597 304.911C67.2424 305.187 67.2302 305.424 67.1229 305.624C67.0111 305.808 66.8095 305.943 66.5184 306.031L63.0013 307.086C62.3729 307.274 61.9645 307.054 61.776 306.426L61.3277 304.932L61.9875 305.962C60.74 305.367 59.1783 305.117 57.3025 305.213C55.4114 305.312 53.1249 305.764 50.443 306.569L47.2937 307.514C46.9566 307.615 46.6784 307.607 46.4592 307.489C46.2202 307.36 46.05 307.127 45.9489 306.79L43.3417 298.101C43.2451 297.779 43.2612 297.499 43.3899 297.259C43.5033 297.025 43.7286 296.857 44.0657 296.756L58.4099 292.452L57.8789 293.438L57.2513 291.346C57.1593 291.04 57.1723 290.777 57.2903 290.558C57.393 290.343 57.5976 290.19 57.9041 290.098L61.4212 289.043C62.0188 288.863 62.4028 289.057 62.5729 289.624C62.6603 289.915 62.6503 290.161 62.543 290.36C62.4312 290.544 62.2296 290.679 61.9385 290.767L59.065 291.629L63.1345 305.192L66.0079 304.329C66.6056 304.15 66.9895 304.344 67.1597 304.911ZM60.9897 303.806L58.2238 294.588L45.1899 298.498L47.3143 305.579L50.0498 304.758C52.5171 304.017 54.6312 303.575 56.3921 303.431C58.1484 303.272 59.6809 303.396 60.9897 303.806Z" fill="#181A1C"/>
<path d="M58.0707 282.102C58.1265 282.418 58.083 282.677 57.9404 282.881C57.7792 283.072 57.541 283.195 57.2259 283.251L42.4082 285.873C42.0773 285.932 41.8178 285.889 41.6295 285.743C41.4256 285.6 41.2957 285.372 41.2399 285.056L40.2488 279.456C39.9337 277.675 40.1323 276.226 40.8445 275.109C41.541 273.995 42.6849 273.297 44.2762 273.015C45.8517 272.736 47.1656 272.999 48.218 273.804C49.2703 274.609 49.9541 275.902 50.2691 277.682L51.093 282.338L56.883 281.313C57.1981 281.258 57.4641 281.292 57.6811 281.416C57.8823 281.543 58.0121 281.772 58.0707 282.102ZM49.4623 282.627L48.6803 278.207C48.4544 276.931 48.0008 276.02 47.3193 275.475C46.6192 274.916 45.7178 274.734 44.6149 274.929C43.4963 275.127 42.7119 275.607 42.2618 276.37C41.7932 277.119 41.6718 278.131 41.8976 279.407L42.6797 283.827L49.4623 282.627Z" fill="#181A1C"/>
<path d="M55.3997 253.373C55.4918 254.938 55.2208 256.325 54.5866 257.532C53.9356 258.724 52.982 259.678 51.7258 260.393C50.4687 261.092 48.9537 261.494 47.1808 261.598C45.8391 261.677 44.6308 261.572 43.556 261.283C42.4642 260.978 41.5312 260.512 40.757 259.885C39.9668 259.258 39.3443 258.485 38.8895 257.566C38.4179 256.632 38.1472 255.574 38.0777 254.393C37.9836 252.795 38.2542 251.401 38.8893 250.21C39.5234 249.002 40.469 248.049 41.7261 247.35C42.9663 246.636 44.4729 246.227 46.2458 246.122C47.5875 246.043 48.8042 246.156 49.896 246.46C50.9878 246.765 51.9287 247.23 52.7189 247.857C53.5091 248.484 54.1401 249.264 54.6117 250.198C55.0665 251.117 55.3292 252.175 55.3997 253.373ZM53.6507 253.476C53.5793 252.262 53.2476 251.256 52.6556 250.457C52.0627 249.643 51.234 249.042 50.1695 248.656C49.105 248.27 47.8459 248.12 46.3925 248.205C44.2043 248.334 42.5403 248.929 41.4007 249.99C40.2441 251.035 39.7194 252.469 39.8266 254.29C39.8962 255.472 40.2274 256.47 40.8203 257.284C41.4123 258.083 42.2405 258.675 43.305 259.061C44.3536 259.449 45.6046 259.599 47.0581 259.514C49.2303 259.386 50.9022 258.791 52.0738 257.728C53.2294 256.666 53.7551 255.249 53.6507 253.476Z" fill="#181A1C"/>
<path d="M55.8316 236.641C55.8113 236.993 55.7078 237.259 55.521 237.441C55.3192 237.605 55.0426 237.678 54.6912 237.657L39.9557 236.808C39.6042 236.788 39.3457 236.685 39.1802 236.499C38.9995 236.296 38.9193 236.019 38.9396 235.668L39.4739 226.395C39.4896 226.124 39.5734 225.92 39.7255 225.785C39.8784 225.633 40.0827 225.565 40.3383 225.58C40.6098 225.595 40.8129 225.687 40.9474 225.855C41.0829 226.007 41.1428 226.219 41.1272 226.491L40.6412 234.925L46.4395 235.259L46.735 230.131C46.8372 228.358 47.3077 227.007 48.1466 226.078C48.9854 225.148 50.1875 224.729 51.7529 224.819C53.3024 224.908 54.4563 225.464 55.2148 226.485C55.9574 227.505 56.2775 228.902 56.1754 230.675L55.8316 236.641ZM54.2266 235.707L54.5111 230.772C54.5847 229.494 54.3923 228.521 53.934 227.854C53.4596 227.185 52.6954 226.821 51.6411 226.76C50.6028 226.7 49.8177 226.975 49.2857 227.586C48.7537 228.196 48.4509 229.14 48.3772 230.418L48.0928 235.354L54.2266 235.707Z" fill="#181A1C"/>
<path d="M58.9136 214.195C58.8582 214.51 58.7286 214.739 58.5248 214.882C58.308 215.007 58.042 215.041 57.7269 214.986L42.7641 212.357C42.4331 212.299 42.1948 212.176 42.0492 211.988C41.9063 211.784 41.8625 211.524 41.9179 211.209C41.9733 210.894 42.1015 210.673 42.3025 210.546C42.5063 210.403 42.7737 210.36 43.1046 210.418L49.6287 211.565L51.3854 201.566L44.8613 200.42C44.5304 200.361 44.2921 200.238 44.1464 200.05C44.0036 199.847 43.9598 199.587 44.0152 199.272C44.0705 198.957 44.1987 198.736 44.3998 198.608C44.6036 198.466 44.8709 198.423 45.2019 198.481L60.1647 201.11C60.4799 201.166 60.7168 201.297 60.8754 201.503C61.0211 201.691 61.0662 201.943 61.0109 202.258C60.9555 202.573 60.8259 202.802 60.6221 202.945C60.4053 203.069 60.1393 203.104 59.8241 203.049L53.0637 201.861L51.307 211.86L58.0674 213.047C58.3826 213.103 58.6209 213.226 58.7823 213.417C58.928 213.605 58.9717 213.864 58.9136 214.195Z" fill="#181A1C"/>
<path d="M64.2986 191.994C64.1978 192.332 64.0356 192.567 63.8121 192.701C63.5777 192.814 63.2919 192.821 62.9546 192.72L48.8121 188.496C48.4748 188.395 48.2471 188.235 48.1288 188.016C47.9998 187.777 47.9856 187.489 48.0864 187.152L50.6417 178.597C50.7196 178.337 50.8481 178.158 51.0273 178.061C51.2065 177.964 51.4187 177.953 51.664 178.026C51.9246 178.104 52.1033 178.232 52.2001 178.411C52.2968 178.591 52.3063 178.811 52.2284 179.071L49.9135 186.821L55.5246 188.497L57.6952 181.23C57.7731 180.97 57.9016 180.791 58.0808 180.694C58.2446 180.593 58.4569 180.581 58.7175 180.659C58.9781 180.737 59.1568 180.865 59.2536 181.044C59.3503 181.224 59.3598 181.444 59.2819 181.704L57.1113 188.971L62.9523 190.716L65.2672 182.966C65.345 182.705 65.4735 182.527 65.6527 182.43C65.8319 182.333 66.0441 182.321 66.2894 182.395C66.5501 182.473 66.7288 182.601 66.8255 182.78C66.9223 182.959 66.9317 183.179 66.8539 183.44L64.2986 191.994Z" fill="#181A1C"/>
<path d="M72.358 170.709C72.2188 171.033 72.0304 171.248 71.7928 171.355C71.5468 171.44 71.2622 171.413 70.9389 171.274L57.3824 165.436C57.0591 165.297 56.8515 165.112 56.7594 164.881C56.659 164.628 56.6784 164.341 56.8177 164.017L60.3488 155.817C60.4564 155.568 60.6048 155.405 60.794 155.33C60.9832 155.254 61.1954 155.267 61.4305 155.369C61.6803 155.476 61.8429 155.625 61.9182 155.814C61.9935 156.003 61.9774 156.222 61.8698 156.472L58.6709 163.901L64.0494 166.217L67.0489 159.251C67.1565 159.002 67.3049 158.839 67.4941 158.764C67.6687 158.682 67.8808 158.695 68.1306 158.803C68.3805 158.91 68.543 159.059 68.6183 159.248C68.6936 159.437 68.6775 159.657 68.5699 159.906L65.5703 166.872L71.1693 169.283L74.3682 161.854C74.4758 161.605 74.6242 161.442 74.8134 161.367C75.0026 161.291 75.2148 161.304 75.4499 161.406C75.6997 161.513 75.8623 161.662 75.9376 161.851C76.0129 162.04 75.9967 162.26 75.8892 162.509L72.358 170.709Z" fill="#181A1C"/>
<path d="M99.352 126.946C98.4164 128.204 97.3177 129.092 96.0559 129.609C94.7907 130.104 93.4472 130.222 92.0253 129.962C90.6129 129.69 89.1942 129.024 87.7689 127.964C86.6904 127.162 85.8324 126.305 85.195 125.392C84.5543 124.457 84.1391 123.501 83.9495 122.522C83.7469 121.534 83.7668 120.542 84.0091 119.546C84.248 118.527 84.7207 117.543 85.4272 116.593C86.3819 115.309 87.4853 114.415 88.7377 113.91C89.9995 113.393 91.3366 113.271 92.749 113.543C94.158 113.793 95.5752 114.448 97.0004 115.508C98.0789 116.31 98.9385 117.178 99.5792 118.113C100.22 119.048 100.642 120.009 100.844 120.997C101.047 121.985 101.028 122.989 100.789 124.007C100.547 125.004 100.068 125.983 99.352 126.946ZM97.946 125.901C98.6716 124.925 99.0643 123.941 99.1242 122.949C99.1936 121.944 98.9446 120.951 98.3774 119.971C97.8101 118.991 96.9422 118.066 95.7738 117.198C94.0147 115.89 92.3578 115.276 90.8029 115.356C89.2447 115.414 87.9215 116.174 86.8332 117.638C86.1267 118.588 85.7388 119.566 85.6694 120.571C85.6095 121.563 85.8632 122.549 86.4305 123.529C86.9849 124.5 87.8463 125.42 89.0148 126.288C90.761 127.587 92.4244 128.205 94.0049 128.144C95.5727 128.074 96.8864 127.326 97.946 125.901Z" fill="#181A1C"/>
<path d="M127.227 99.1928C126.982 99.3987 126.736 99.4908 126.488 99.4693C126.242 99.4252 126.016 99.2807 125.81 99.0357L116.037 87.4039C115.821 87.1467 115.718 86.8992 115.727 86.6615C115.749 86.4136 115.882 86.1866 116.127 85.9808C116.372 85.775 116.612 85.688 116.848 85.7198C117.096 85.7413 117.328 85.8807 117.544 86.138L121.805 91.2096L129.578 84.6793L125.317 79.6076C125.101 79.3504 124.997 79.1029 125.007 78.8652C125.028 78.6173 125.162 78.3904 125.407 78.1845C125.652 77.9787 125.892 77.8917 126.128 77.9235C126.376 77.945 126.608 78.0844 126.824 78.3417L136.596 89.9734C136.802 90.2184 136.899 90.4711 136.888 90.7313C136.879 90.9689 136.752 91.1907 136.507 91.3966C136.262 91.6024 136.015 91.6945 135.767 91.673C135.521 91.6289 135.295 91.4844 135.089 91.2394L130.674 85.984L122.901 92.5143L127.317 97.7697C127.522 98.0147 127.626 98.2622 127.627 98.5121C127.618 98.7498 127.484 98.9767 127.227 99.1928Z" fill="#181A1C"/>
<path d="M144.512 86.58C144.299 86.7208 144.094 86.7884 143.899 86.7829C143.708 86.7552 143.547 86.67 143.414 86.5272C143.287 86.3623 143.199 86.1421 143.152 85.8667L140.4 69.6893C140.345 69.3428 140.362 69.0634 140.452 68.8509C140.546 68.6162 140.694 68.4329 140.894 68.3009C141.094 68.1689 141.314 68.1102 141.554 68.1248C141.798 68.1173 142.062 68.212 142.345 68.4088L156.14 77.3128C156.388 77.4562 156.555 77.6235 156.643 77.8149C156.744 77.9974 156.765 78.175 156.707 78.3477C156.648 78.5205 156.512 78.6772 156.298 78.818C156.058 78.9765 155.824 79.0439 155.598 79.0205C155.363 78.9837 155.12 78.8758 154.868 78.6969L151.127 76.2462L152.206 76.1391L143.587 81.8154L144.132 80.8532L144.926 85.2443C144.973 85.5774 144.969 85.8481 144.915 86.0564C144.86 86.2646 144.726 86.4392 144.512 86.58ZM142.234 70.3786L144.01 80.1004L143.278 80.0363L150.694 75.1521L150.504 75.8234L142.274 70.3522L142.234 70.3786Z" fill="#181A1C"/>
<path d="M171.15 71.9119C169.663 72.6596 168.233 72.985 166.859 72.8881C165.485 72.7912 164.22 72.3077 163.066 71.4375C161.927 70.5601 160.954 69.3209 160.149 67.72C159.545 66.5194 159.163 65.3682 159.003 64.2667C158.85 63.1436 158.908 62.1024 159.178 61.1429C159.455 60.162 159.946 59.2699 160.653 58.4668C161.352 57.6494 162.252 56.964 163.352 56.4104C164.239 55.9646 165.147 55.6691 166.077 55.5237C166.999 55.3641 167.876 55.3799 168.706 55.5711C168.964 55.6206 169.168 55.7239 169.319 55.8809C169.477 56.0165 169.57 56.1844 169.599 56.3847C169.635 56.5635 169.618 56.7424 169.547 56.9215C169.483 57.0791 169.365 57.201 169.193 57.2873C169.022 57.3735 168.793 57.3991 168.507 57.364C167.784 57.2083 167.064 57.185 166.349 57.2941C165.634 57.4031 164.919 57.6373 164.204 57.9968C163.075 58.5648 162.239 59.2895 161.698 60.1709C161.149 61.038 160.904 62.0296 160.964 63.1457C161.024 64.2619 161.381 65.4703 162.036 66.771C162.69 68.0717 163.451 69.086 164.318 69.8138C165.179 70.5273 166.124 70.9293 167.155 71.0198C168.178 71.0961 169.254 70.8502 170.384 70.2823C171.084 69.93 171.698 69.4956 172.227 68.9792C172.748 68.4484 173.168 67.8428 173.489 67.1622C173.631 66.9115 173.792 66.7501 173.971 66.6781C174.142 66.5918 174.31 66.57 174.475 66.6125C174.64 66.655 174.783 66.7441 174.905 66.8798C175.041 67.0083 175.124 67.1726 175.153 67.3729C175.196 67.566 175.165 67.77 175.058 67.9849C174.716 68.8015 174.206 69.5504 173.528 70.2318C172.857 70.8917 172.064 71.4517 171.15 71.9119Z" fill="#181A1C"/>
<path d="M216.146 56.491C214.589 56.861 213.233 56.6899 212.077 55.9779C210.906 55.2036 210.143 54.0693 209.788 52.5749C209.433 51.0805 209.611 49.7554 210.323 48.5994C211.021 47.3812 212.148 46.5871 213.704 46.2172C215.261 45.8472 216.593 46.0568 217.702 46.8459C218.858 47.5579 219.613 48.6611 219.969 50.1555C220.324 51.6499 220.153 53.0062 219.455 54.2244C218.806 55.3655 217.702 56.1211 216.146 56.491Z" fill="#181A1C"/>
</svg>
